<svg width="27" height="24" viewBox="0 0 27 24" fill="none" xmlns="http://www.w3.org/2000/svg">
<path d="M5.72852 21.782L5.31595 22.6929L5.31595 22.6929L5.72852 21.782ZM4.74524 20.908L3.87766 21.4053L3.87766 21.4053L4.74524 20.908ZM17.7548 20.908L18.6223 21.4053L18.6223 21.4053L17.7548 20.908ZM16.7715 21.782L17.184 22.6929L17.184 22.6929L16.7715 21.782ZM16.7715 6.21799L16.3589 7.12891L16.3589 7.12891L16.7715 6.21799ZM17.7548 7.09202L16.8872 7.58933L16.8872 7.58933L17.7548 7.09202ZM5.72852 6.21799L6.14109 7.12891L6.14109 7.12891L5.72852 6.21799ZM4.74524 7.09202L3.87766 6.59471L4.74524 7.09202ZM22.2548 16.908L21.3872 16.4107L21.3872 16.4107L22.2548 16.908ZM21.2715 17.782L20.8589 16.8711L20.8589 16.8711L21.2715 17.782ZM21.2715 2.21799L21.684 1.30706L21.684 1.30706L21.2715 2.21799ZM22.2548 3.09202L21.3872 3.58933L21.3872 3.58933L22.2548 3.09202ZM10.2285 2.21799L9.81595 1.30706L9.81595 1.30706L10.2285 2.21799ZM9.24524 3.09202L10.1128 3.58933L10.1128 3.58933L9.24524 3.09202ZM12.25 11C12.25 10.4477 11.8023 10 11.25 10C10.6977 10 10.25 10.4477 10.25 11H12.25ZM10.25 17C10.25 17.5523 10.6977 18 11.25 18C11.8023 18 12.25 17.5523 12.25 17H10.25ZM14.625 15C15.1773 15 15.625 14.5523 15.625 14C15.625 13.4477 15.1773 13 14.625 13V15ZM7.875 13C7.32272 13 6.875 13.4477 6.875 14C6.875 14.5523 7.32272 15 7.875 15V13ZM8.1 7H14.4V5H8.1V7ZM17 9.2V18.8H19V9.2H17ZM14.4 21H8.1V23H14.4V21ZM5.5 18.8V9.2H3.5V18.8H5.5ZM8.1 21C7.45526 21 7.02519 20.9994 6.69464 20.9754C6.37274 20.952 6.22815 20.9105 6.14109 20.8711L5.31595 22.6929C5.7102 22.8715 6.12128 22.939 6.54977 22.9701C6.96961 23.0006 7.48462 23 8.1 23V21ZM3.5 18.8C3.5 19.3415 3.49902 19.8153 3.53485 20.2051C3.57213 20.6106 3.65519 21.0172 3.87766 21.4053L5.61281 20.4107C5.59004 20.371 5.55049 20.2836 5.52646 20.0221C5.50098 19.7449 5.5 19.3786 5.5 18.8H3.5ZM6.14109 20.8711C5.8946 20.7594 5.71643 20.5914 5.61281 20.4107L3.87766 21.4053C4.20547 21.9772 4.71571 22.4211 5.31595 22.6929L6.14109 20.8711ZM17 18.8C17 19.3786 16.999 19.7449 16.9735 20.0221C16.9495 20.2836 16.91 20.371 16.8872 20.4107L18.6223 21.4053C18.8448 21.0172 18.9279 20.6106 18.9651 20.2051C19.001 19.8153 19 19.3415 19 18.8H17ZM14.4 23C15.0154 23 15.5304 23.0006 15.9502 22.9701C16.3787 22.939 16.7898 22.8715 17.184 22.6929L16.3589 20.8711C16.2719 20.9105 16.1273 20.952 15.8054 20.9754C15.4748 20.9994 15.0447 21 14.4 21V23ZM16.8872 20.4107C16.7836 20.5914 16.6054 20.7594 16.3589 20.8711L17.184 22.6929C17.7843 22.4211 18.2945 21.9772 18.6223 21.4053L16.8872 20.4107ZM14.4 7C15.0447 7 15.4748 7.00062 15.8054 7.02462C16.1273 7.048 16.2719 7.08948 16.3589 7.12891L17.184 5.30706C16.7898 5.1285 16.3787 5.06099 15.9502 5.02988C15.5304 4.99938 15.0154 5 14.4 5V7ZM19 9.2C19 8.65849 19.001 8.18474 18.9651 7.79487C18.9279 7.38936 18.8448 6.98282 18.6223 6.59471L16.8872 7.58933C16.91 7.62904 16.9495 7.71644 16.9735 7.97793C16.999 8.25508 17 8.62141 17 9.2H19ZM16.3589 7.12891C16.6054 7.24055 16.7836 7.40856 16.8872 7.58933L18.6223 6.59471C18.2945 6.02283 17.7843 5.57892 17.184 5.30706L16.3589 7.12891ZM8.1 5C7.48462 5 6.96961 4.99938 6.54977 5.02988C6.12128 5.06099 5.7102 5.1285 5.31595 5.30706L6.14109 7.12891C6.22815 7.08948 6.37274 7.048 6.69464 7.02462C7.02519 7.00062 7.45526 7 8.1 7V5ZM5.5 9.2C5.5 8.62141 5.50098 8.25508 5.52646 7.97793C5.55049 7.71644 5.59004 7.62904 5.61281 7.58933L3.87766 6.59471C3.65519 6.98282 3.57213 7.38936 3.53485 7.79487C3.49902 8.18474 3.5 8.65849 3.5 9.2H5.5ZM5.31595 5.30706C4.71571 5.57892 4.20547 6.02283 3.87766 6.59471L5.61281 7.58933C5.71643 7.40856 5.8946 7.24055 6.14109 7.12891L5.31595 5.30706ZM12.6 3H18.9V1H12.6V3ZM21.5 5.2V14.8H23.5V5.2H21.5ZM21.5 14.8C21.5 15.3786 21.499 15.7449 21.4735 16.0221C21.4495 16.2836 21.41 16.371 21.3872 16.4107L23.1223 17.4053C23.3448 17.0172 23.4279 16.6106 23.4651 16.2051C23.501 15.8153 23.5 15.3415 23.5 14.8H21.5ZM18.9 19C19.5154 19 20.0304 19.0006 20.4502 18.9701C20.8787 18.939 21.2898 18.8715 21.684 18.6929L20.8589 16.8711C20.7719 16.9105 20.6273 16.952 20.3054 16.9754C19.9748 16.9994 19.5447 17 18.9 17V19ZM21.3872 16.4107C21.2836 16.5914 21.1054 16.7594 20.8589 16.8711L21.684 18.6929C22.2843 18.4211 22.7945 17.9772 23.1223 17.4053L21.3872 16.4107ZM18.9 3C19.5447 3 19.9748 3.00062 20.3054 3.02462C20.6273 3.048 20.7719 3.08948 20.8589 3.12891L21.684 1.30706C21.2898 1.1285 20.8787 1.06099 20.4502 1.02988C20.0304 0.999385 19.5154 1 18.9 1V3ZM23.5 5.2C23.5 4.65849 23.501 4.18474 23.4651 3.79487C23.4279 3.38936 23.3448 2.98282 23.1223 2.59471L21.3872 3.58933C21.41 3.62904 21.4495 3.71644 21.4735 3.97793C21.499 4.25508 21.5 4.62141 21.5 5.2H23.5ZM20.8589 3.12891C21.1054 3.24055 21.2836 3.40856 21.3872 3.58933L23.1223 2.59471C22.7945 2.02283 22.2843 1.57892 21.684 1.30706L20.8589 3.12891ZM12.6 1C11.9846 1 11.4696 0.999385 11.0498 1.02988C10.6213 1.06099 10.2102 1.1285 9.81595 1.30706L10.6411 3.12891C10.7281 3.08948 10.8727 3.048 11.1946 3.02462C11.5252 3.00062 11.9553 3 12.6 3V1ZM10 5.2C10 4.62141 10.001 4.25508 10.0265 3.97793C10.0505 3.71644 10.09 3.62904 10.1128 3.58933L8.37766 2.59471C8.15519 2.98282 8.07213 3.38936 8.03485 3.79487C7.99902 4.18474 8 4.65849 8 5.2H10ZM9.81595 1.30706C9.21571 1.57892 8.70547 2.02283 8.37766 2.59471L10.1128 3.58933C10.2164 3.40856 10.3946 3.24055 10.6411 3.12891L9.81595 1.30706ZM10.25 11V14H12.25V11H10.25ZM10.25 14V17H12.25V14H10.25ZM14.625 13H11.25V15H14.625V13ZM11.25 13H7.875V15H11.25V13Z" fill="#5862E1"/>
</svg>
