<svg width="23" height="22" viewBox="0 0 23 22" fill="none" xmlns="http://www.w3.org/2000/svg">
<path d="M7.04151 19.25C6.53734 19.25 6.10559 19.0703 5.74626 18.711C5.38692 18.3517 5.20756 17.9202 5.20817 17.4167V5.5C4.94845 5.5 4.73059 5.412 4.55459 5.236C4.37859 5.06 4.2909 4.84245 4.29151 4.58334C4.29151 4.32361 4.37951 4.10575 4.55551 3.92975C4.73151 3.75375 4.94906 3.66606 5.20817 3.66667H8.87484C8.87484 3.40695 8.96284 3.18909 9.13884 3.01309C9.31484 2.83709 9.5324 2.74939 9.79151 2.75H13.4582C13.7179 2.75 13.9358 2.838 14.1118 3.014C14.2878 3.19 14.3755 3.40756 14.3748 3.66667H18.0415C18.3012 3.66667 18.5191 3.75467 18.6951 3.93067C18.8711 4.10667 18.9588 4.32423 18.9582 4.58334C18.9582 4.84306 18.8702 5.06092 18.6942 5.23692C18.5182 5.41292 18.3006 5.50061 18.0415 5.5V17.4167C18.0415 17.9208 17.8618 18.3526 17.5025 18.7119C17.1432 19.0713 16.7117 19.2506 16.2082 19.25H7.04151ZM7.04151 5.5V17.4167H16.2082V5.5H7.04151ZM8.87484 14.6667C8.87484 14.9264 8.96284 15.1443 9.13884 15.3203C9.31484 15.4963 9.5324 15.5839 9.79151 15.5833C10.0512 15.5833 10.2691 15.4953 10.4451 15.3193C10.6211 15.1433 10.7088 14.9258 10.7082 14.6667V8.25C10.7082 7.99028 10.6202 7.77242 10.4442 7.59642C10.2682 7.42042 10.0506 7.33272 9.79151 7.33334C9.53179 7.33334 9.31392 7.42134 9.13792 7.59734C8.96192 7.77334 8.87423 7.99089 8.87484 8.25V14.6667ZM12.5415 14.6667C12.5415 14.9264 12.6295 15.1443 12.8055 15.3203C12.9815 15.4963 13.1991 15.5839 13.4582 15.5833C13.7179 15.5833 13.9358 15.4953 14.1118 15.3193C14.2878 15.1433 14.3755 14.9258 14.3748 14.6667V8.25C14.3748 7.99028 14.2868 7.77242 14.1108 7.59642C13.9348 7.42042 13.7173 7.33272 13.4582 7.33334C13.1985 7.33334 12.9806 7.42134 12.8046 7.59734C12.6286 7.77334 12.5409 7.99089 12.5415 8.25V14.6667Z" fill="#F96469"/>
</svg>
