<svg width="23" height="22" viewBox="0 0 23 22" fill="none" xmlns="http://www.w3.org/2000/svg">
<path d="M19.8752 11.0001C19.632 11.0001 19.3989 11.0967 19.227 11.2686C19.0551 11.4405 18.9585 11.6737 18.9585 11.9168V17.4168C18.9585 17.6599 18.8619 17.893 18.69 18.065C18.5181 18.2369 18.2849 18.3334 18.0418 18.3334H5.2085C4.96538 18.3334 4.73222 18.2369 4.56032 18.065C4.38841 17.893 4.29183 17.6599 4.29183 17.4168V4.58344C4.29183 4.34033 4.38841 4.10717 4.56032 3.93526C4.73222 3.76335 4.96538 3.66677 5.2085 3.66677H10.7085C10.9516 3.66677 11.1848 3.5702 11.3567 3.39829C11.5286 3.22638 11.6252 2.99322 11.6252 2.75011C11.6252 2.50699 11.5286 2.27383 11.3567 2.10193C11.1848 1.93002 10.9516 1.83344 10.7085 1.83344H5.2085C4.47915 1.83344 3.77968 2.12317 3.26395 2.6389C2.74823 3.15462 2.4585 3.85409 2.4585 4.58344V17.4168C2.4585 18.1461 2.74823 18.8456 3.26395 19.3613C3.77968 19.877 4.47915 20.1668 5.2085 20.1668H18.0418C18.7712 20.1668 19.4706 19.877 19.9864 19.3613C20.5021 18.8456 20.7918 18.1461 20.7918 17.4168V11.9168C20.7918 11.6737 20.6953 11.4405 20.5233 11.2686C20.3514 11.0967 20.1183 11.0001 19.8752 11.0001ZM6.12516 11.6968V15.5834C6.12516 15.8266 6.22174 16.0597 6.39365 16.2316C6.56556 16.4035 6.79871 16.5001 7.04183 16.5001H10.9285C11.0491 16.5008 11.1687 16.4777 11.2804 16.4321C11.3921 16.3864 11.4937 16.3192 11.5793 16.2343L17.9227 9.88177L20.526 7.33344C20.6119 7.24822 20.6801 7.14684 20.7266 7.03514C20.7732 6.92343 20.7971 6.80362 20.7971 6.68261C20.7971 6.5616 20.7732 6.44178 20.7266 6.33008C20.6801 6.21837 20.6119 6.11699 20.526 6.03177L16.6393 2.09927C16.5541 2.01336 16.4527 1.94516 16.341 1.89862C16.2293 1.85209 16.1095 1.82812 15.9885 1.82812C15.8675 1.82812 15.7477 1.85209 15.636 1.89862C15.5243 1.94516 15.4229 2.01336 15.3377 2.09927L12.7527 4.69344L6.391 11.0459C6.30604 11.1316 6.23882 11.2332 6.19321 11.3449C6.14759 11.4565 6.12447 11.5761 6.12516 11.6968ZM15.9885 4.04261L18.5827 6.63677L17.281 7.93844L14.6868 5.34427L15.9885 4.04261ZM7.9585 12.0726L13.3943 6.63677L15.9885 9.23094L10.5527 14.6668H7.9585V12.0726Z" fill="#5861E2"/>
</svg>
