<svg width="24" height="24" viewBox="0 0 24 24" fill="none" xmlns="http://www.w3.org/2000/svg">
<path d="M10.7 13.15L8.5 11H9C9.28333 11 9.521 10.904 9.713 10.712C9.90433 10.5207 10 10.2833 10 10C10 9.71667 9.90433 9.479 9.713 9.287C9.521 9.09567 9.28333 9 9 9H6C5.71667 9 5.479 9.09567 5.287 9.287C5.09567 9.479 5 9.71667 5 10V13C5 13.2833 5.09567 13.5207 5.287 13.712C5.479 13.904 5.71667 14 6 14C6.28333 14 6.521 13.904 6.713 13.712C6.90433 13.5207 7 13.2833 7 13V12.3L10 15.3C10.0833 15.3833 10.1873 15.45 10.312 15.5C10.4373 15.55 10.5667 15.575 10.7 15.575C10.8333 15.575 10.9627 15.55 11.088 15.5C11.2127 15.45 11.3167 15.375 11.4 15.275L14.525 12.125C14.7083 11.9417 14.8 11.7167 14.8 11.45C14.8 11.1833 14.7 10.95 14.5 10.75C14.3167 10.5667 14.0833 10.475 13.8 10.475C13.5167 10.475 13.2833 10.5667 13.1 10.75L10.7 13.15ZM4 20C3.45 20 2.97933 19.8043 2.588 19.413C2.196 19.021 2 18.55 2 18V6C2 5.45 2.196 4.97933 2.588 4.588C2.97933 4.196 3.45 4 4 4H16C16.55 4 17.021 4.196 17.413 4.588C17.8043 4.97933 18 5.45 18 6V10.5L21.15 7.35C21.3 7.2 21.4793 7.16233 21.688 7.237C21.896 7.31233 22 7.46667 22 7.7V16.3C22 16.5333 21.896 16.6873 21.688 16.762C21.4793 16.8373 21.3 16.8 21.15 16.65L18 13.5V18C18 18.55 17.8043 19.021 17.413 19.413C17.021 19.8043 16.55 20 16 20H4ZM4 18H16V6H4V18Z" fill="#6B56EC"/>
</svg>
