<svg width="622" height="694" viewBox="0 0 622 694" fill="none" xmlns="http://www.w3.org/2000/svg">
<path d="M266.707 295.354C235.362 295.354 203.63 296.126 172.285 295.354C151.002 294.581 129.718 292.651 108.435 289.949C82.1207 286.474 65.0939 269.1 56.5805 245.935C36.458 190.339 17.1093 134.358 0.856503 77.6037C-2.62625 65.2491 5.1132 46.3311 13.2396 34.3626C41.8756 -7.33422 85.2165 -8.49246 128.557 16.9889C174.994 44.4007 222.592 70.6542 269.415 98.066C330.557 133.586 391.699 169.491 452.84 204.625C495.407 229.334 537.587 254.815 581.315 277.98C621.947 299.601 633.17 350.949 610.338 387.241C598.342 406.545 578.219 415.425 559.258 426.235C494.633 463.685 430.009 501.135 365.385 538.199C312.369 568.699 259.354 599.2 206.339 629.314C172.672 648.618 139.393 668.308 104.952 686.454C60.0633 710.391 10.1438 673.327 1.24348 632.017C-3.01322 612.327 7.04806 597.269 12.0787 580.668C25.2358 538.585 39.5538 496.502 53.0978 454.419C63.933 420.83 86.3774 401.526 127.01 400.754C163.385 400.368 199.76 399.21 236.136 398.051C257.806 397.279 279.09 396.507 300.76 395.349C323.205 393.804 345.649 390.716 356.484 367.165C370.415 335.892 349.906 299.987 315.852 300.373C299.212 300.373 282.959 298.056 266.32 296.898C266.32 296.512 266.32 295.74 266.32 295.354H266.707Z" fill="#5861E2"/>
</svg>
