<svg width="21" height="21" viewBox="0 0 21 21" fill="none" xmlns="http://www.w3.org/2000/svg">
<path d="M2.1 17C1.5225 17 1.0283 16.8288 0.6174 16.4864C0.2058 16.1434 0 15.7312 0 15.25V4.75C0 4.26875 0.2058 3.85692 0.6174 3.5145C1.0283 3.1715 1.5225 3 2.1 3H14.7C15.2775 3 15.772 3.1715 16.1836 3.5145C16.5945 3.85692 16.8 4.26875 16.8 4.75V8.6875L20.1075 5.93125C20.265 5.8 20.4533 5.76704 20.6724 5.83237C20.8908 5.89829 21 6.03333 21 6.2375V13.7625C21 13.9667 20.8908 14.1014 20.6724 14.1667C20.4533 14.2327 20.265 14.2 20.1075 14.0687L16.8 11.3125V15.25C16.8 15.7312 16.5945 16.1434 16.1836 16.4864C15.772 16.8288 15.2775 17 14.7 17H2.1ZM2.1 15.25H14.7V4.75H2.1V15.25Z" fill="#5962E2"/>
</svg>
