<svg width="24" height="24" viewBox="0 0 24 24" fill="none" xmlns="http://www.w3.org/2000/svg">
<path d="M16.8 22L16.8 21L16.8 21L16.8 22ZM7.2 22L7.2 23L7.2 23L7.2 22ZM4 18.8L5 18.8L5 18.8L4 18.8ZM4 5.2L3 5.2L3 5.2L4 5.2ZM4.21799 3.09202L3.32698 2.63803L3.32698 2.63803L4.21799 3.09202ZM7.2 2L7.2 1L7.2 2ZM5.09202 2.21799L4.63803 1.32698L4.63803 1.32698L5.09202 2.21799ZM5.09202 21.782L4.63803 22.673L4.63803 22.673L5.09202 21.782ZM4.21799 20.908L5.10899 20.454L5.10899 20.454L4.21799 20.908ZM18.908 21.782L18.454 20.891L18.454 20.891L18.908 21.782ZM20 18.8L21 18.8L20 18.8ZM19.782 20.908L18.891 20.454L18.891 20.454L19.782 20.908ZM19 8C19 7.44772 19.4477 7 20 7C20.5523 7 21 7.44772 21 8L19 8ZM14 1C14.5523 1 15 1.44772 15 2C15 2.55229 14.5523 3 14 3L14 1ZM19.8293 7.82929L20.5364 7.12218L19.8293 7.82929ZM14.1707 2.17071L13.4636 2.87782L14.1707 2.17071ZM19.7586 8L19.7586 9L19.7586 8ZM15 8L15 7L15 8ZM14 7L15 7L15 7L14 7ZM14 2.24142L13 2.24142L13 2.24142L14 2.24142ZM16.8 23H7.2V21H16.8V23ZM3 18.8V5.2H5V18.8H3ZM3 5.2C3 4.65645 2.99922 4.18864 3.03057 3.80497C3.06287 3.40963 3.13419 3.01641 3.32698 2.63803L5.10899 3.54601C5.0838 3.59545 5.04612 3.69617 5.02393 3.96784C5.00078 4.25117 5 4.62345 5 5.2L3 5.2ZM7.2 3C6.62345 3 6.25117 3.00078 5.96784 3.02393C5.69617 3.04612 5.59545 3.0838 5.54601 3.10899L4.63803 1.32698C5.01641 1.13419 5.40963 1.06287 5.80497 1.03057C6.18864 0.999222 6.65645 1 7.2 1L7.2 3ZM3.32698 2.63803C3.6146 2.07354 4.07355 1.6146 4.63803 1.32698L5.54601 3.10899C5.35785 3.20487 5.20487 3.35785 5.10899 3.54601L3.32698 2.63803ZM7.2 23C6.65645 23 6.18864 23.0008 5.80497 22.9694C5.40963 22.9371 5.01641 22.8658 4.63803 22.673L5.54601 20.891C5.59545 20.9162 5.69617 20.9539 5.96783 20.9761C6.25117 20.9992 6.62345 21 7.2 21L7.2 23ZM5 18.8C5 19.3766 5.00078 19.7488 5.02393 20.0322C5.04612 20.3038 5.0838 20.4045 5.10899 20.454L3.32698 21.362C3.13419 20.9836 3.06287 20.5904 3.03057 20.195C2.99922 19.8114 3 19.3436 3 18.8L5 18.8ZM4.63803 22.673C4.07354 22.3854 3.6146 21.9265 3.32698 21.362L5.10899 20.454C5.20487 20.6422 5.35785 20.7951 5.54601 20.891L4.63803 22.673ZM16.8 21C17.3766 21 17.7488 20.9992 18.0322 20.9761C18.3038 20.9539 18.4045 20.9162 18.454 20.891L19.362 22.673C18.9836 22.8658 18.5904 22.9371 18.195 22.9694C17.8114 23.0008 17.3435 23 16.8 23L16.8 21ZM21 18.8C21 19.3436 21.0008 19.8114 20.9694 20.195C20.9371 20.5904 20.8658 20.9836 20.673 21.362L18.891 20.454C18.9162 20.4045 18.9539 20.3038 18.9761 20.0322C18.9992 19.7488 19 19.3766 19 18.8L21 18.8ZM18.454 20.891C18.6422 20.7951 18.7951 20.6422 18.891 20.454L20.673 21.362C20.3854 21.9265 19.9265 22.3854 19.362 22.673L18.454 20.891ZM21 8L21 18.8L19 18.8L19 8L21 8ZM7.2 1L14 1L14 3L7.2 3L7.2 1ZM19.1222 8.5364L13.4636 2.87782L14.8778 1.46361L20.5364 7.12218L19.1222 8.5364ZM19.7586 9L15 9L15 7L19.7586 7L19.7586 9ZM13 7V2.24142H15V7H13ZM15 9C13.8954 9 13 8.10457 13 7L15 7L15 7L15 9ZM13.4636 2.87782C14.0306 3.44478 15 3.04324 15 2.24142L13 2.24142C13 1.26142 14.1849 0.770647 14.8778 1.46361L13.4636 2.87782ZM20.5364 7.12218C21.2294 7.81515 20.7386 9 19.7586 9L19.7586 7C18.9568 7 18.5552 7.96943 19.1222 8.5364L20.5364 7.12218Z" fill="#5862E1"/>
<path d="M13.8828 13.2842H15.7578V11.2217" stroke="#5862E1" stroke-width="1.5" stroke-linecap="round" stroke-linejoin="round"/>
<path d="M9.57031 11.8274C9.88922 11.4761 10.268 11.1974 10.6849 11.0073C11.1018 10.8171 11.5487 10.7192 12 10.7192C12.4513 10.7192 12.8982 10.8171 13.3151 11.0073C13.732 11.1974 14.1108 11.4761 14.4297 11.8274L15.7578 13.2841" stroke="#5862E1" stroke-width="1.5" stroke-linecap="round" stroke-linejoin="round"/>
<path d="M10.1172 15.7158H8.24219V17.7783" stroke="#5862E1" stroke-width="1.5" stroke-linecap="round" stroke-linejoin="round"/>
<path d="M14.4297 17.1725C14.1108 17.5238 13.732 17.8025 13.3151 17.9926C12.8982 18.1828 12.4513 18.2807 12 18.2807C11.5487 18.2807 11.1018 18.1828 10.6849 17.9926C10.268 17.8025 9.88922 17.5238 9.57031 17.1725L8.24219 15.7158" stroke="#5862E1" stroke-width="1.5" stroke-linecap="round" stroke-linejoin="round"/>
</svg>
