<svg width="21" height="21" viewBox="0 0 21 21" fill="none" xmlns="http://www.w3.org/2000/svg">
<path d="M2.9 17C2.3775 17 1.93037 16.8288 1.5586 16.4864C1.1862 16.1434 1 15.7313 1 15.25V4.75C1 4.26875 1.1862 3.85692 1.5586 3.5145C1.93037 3.1715 2.3775 3 2.9 3H14.3C14.8225 3 15.2699 3.1715 15.6423 3.5145C16.0141 3.85692 16.2 4.26875 16.2 4.75V8.6875L19.1925 5.93125C19.335 5.8 19.5054 5.76704 19.7036 5.83237C19.9012 5.89829 20 6.03333 20 6.2375V13.7625C20 13.9667 19.9012 14.1014 19.7036 14.1667C19.5054 14.2327 19.335 14.2 19.1925 14.0687L16.2 11.3125V15.25C16.2 15.7313 16.0141 16.1434 15.6423 16.4864C15.2699 16.8288 14.8225 17 14.3 17H2.9ZM2.9 15.25H14.3V4.75H2.9V15.25Z" fill="#5862E1"/>
<path fill-rule="evenodd" clip-rule="evenodd" d="M0 19.4862L19.4862 0L21 1.51383L1.51383 21L0 19.4862Z" fill="#5862E1"/>
</svg>
