<svg width="32" height="30" viewBox="0 0 32 30" fill="none" xmlns="http://www.w3.org/2000/svg">
<path d="M25.6596 22.4575C26.3568 21.525 27.0644 20.5685 27.6139 19.6162C27.9947 18.9563 26.9907 19.907 26.8516 20.023C24.4482 22.0265 22.0496 24.056 19.385 25.8534C19.0073 26.1082 16.5056 27.9091 17.0983 26.6095C18.6157 23.2825 22.7906 19.568 25.7768 16.5769C26.3412 16.0116 27.7772 14.2727 27.4779 14.8842C26.5027 16.8763 23.5571 19.2847 21.6235 20.9364C19.6758 22.6003 17.4667 24.3549 15.0651 25.5614C14.3371 25.9271 14.8925 25.0628 15.0347 24.8224C17.5059 20.6442 21.7422 16.5672 25.043 12.5533C26.676 10.5676 25.1163 12.4552 26.2538 11.0553C26.3093 10.987 26.3537 10.9132 26.4263 10.852C26.6045 10.7018 26.2456 11.2011 26.112 11.3693C24.5682 13.3145 22.4497 15.2931 20.2311 16.9081C19.9468 17.115 18.5764 18.1834 18.8445 17.4007C19.4149 15.7351 21.3908 13.7692 22.7453 12.2231C23.7487 11.0776 24.7734 9.73637 25.9943 8.66631C26.2023 8.48401 25.4529 9.52132 25.431 9.54712C23.2381 12.1358 19.8898 14.6567 17.0064 16.8469C14.9318 18.4227 11.8737 20.8386 9.29882 21.7984C8.36943 22.1448 11.7065 18.1094 12.1192 17.7018C13.197 16.6374 11.6827 18.3805 11.4064 18.7188" stroke="#CDD0FD" stroke-width="3" stroke-linecap="round"/>
<g filter="url(#filter0_b_617_1880)">
<path d="M2.8364 13.6016C3.41756 11.0462 7.49121 9.11389 9.38754 7.88154C11.8158 6.30355 14.8895 4.91566 17.0033 2.87769C18.6116 1.32711 13.818 6.01809 12.1338 7.47876C10.6274 8.78529 9.10735 10.0873 7.66817 11.4748C5.62897 13.4408 6.67345 12.9149 8.60575 11.7743C13.092 9.12607 17.6271 6.7078 22.3431 4.53261C22.8437 4.30168 19.1232 8.95151 18.4933 9.59238C16.0696 12.058 12.5624 14.3219 10.675 17.2748C9.22835 19.5382 14.4095 13.4641 16.4464 11.7645C17.3083 11.0452 20.3055 8.04421 18.9565 11.0019C17.8057 13.5251 15.9471 15.5714 14.465 17.8751C14.2759 18.1692 16.7875 15.4337 17.8002 15.0456C19.2201 14.5016 17.1 18.5342 16.8455 19.0483C16.6715 19.3998 16.204 20.0168 16.9068 19.4945C18.4896 18.3179 20.015 17.0624 21.6126 15.9054C22.1824 15.4928 25.7226 12.4906 24.859 15.222C24.5152 16.3095 23.056 19.1666 22.9575 18.0231C22.9149 17.5284 23.3271 17.1413 23.6395 16.9427" stroke="#CDD1FD" stroke-width="4" stroke-linecap="round"/>
</g>
<path d="M20.5 14L17.5 17L16 15.5M14.9296 6H11C9.89543 6 9 6.89543 9 8V18C9 20.2091 10.7909 22 13 22H23C25.2091 22 27 20.2091 27 18V13C27 10.7909 25.2091 9 23 9H19.0704C18.4017 9 17.7772 8.6658 17.4063 8.1094L16.5937 6.8906C16.2228 6.3342 15.5983 6 14.9296 6Z" stroke="#5861E2" stroke-width="2" stroke-linecap="round" stroke-linejoin="round"/>
<defs>
<filter id="filter0_b_617_1880" x="-18.1641" y="-18.4214" width="64.158" height="59.1177" filterUnits="userSpaceOnUse" color-interpolation-filters="sRGB">
<feFlood flood-opacity="0" result="BackgroundImageFix"/>
<feGaussianBlur in="BackgroundImageFix" stdDeviation="9.5"/>
<feComposite in2="SourceAlpha" operator="in" result="effect1_backgroundBlur_617_1880"/>
<feBlend mode="normal" in="SourceGraphic" in2="effect1_backgroundBlur_617_1880" result="shape"/>
</filter>
</defs>
</svg>
