<svg width="676" height="676" viewBox="0 0 676 676" fill="none" xmlns="http://www.w3.org/2000/svg">
<circle cx="338" cy="338" r="338" fill="url(#paint0_linear_426_5702)"/>
<path fill-rule="evenodd" clip-rule="evenodd" d="M231.312 270.188C231.312 211.542 278.854 164 337.5 164C396.146 164 443.688 211.542 443.688 270.188C443.688 328.833 396.146 376.375 337.5 376.375C278.854 376.375 231.312 328.833 231.312 270.188ZM455.688 270.188C455.688 320.194 424.631 362.947 380.753 380.21C414.236 386.258 444.265 399.185 468.026 417.006C501.645 442.22 523 477.512 523 517C523 520.314 520.314 523 517 523V524H158V523C154.686 523 152 520.314 152 517C152 477.512 173.355 442.22 206.974 417.006C230.735 399.185 260.764 386.259 294.247 380.21C250.369 362.947 219.312 320.194 219.312 270.188C219.312 204.914 272.227 152 337.5 152C402.773 152 455.688 204.914 455.688 270.188ZM164.129 512H510.871C509.164 479.082 490.668 448.987 460.826 426.606C429.477 403.094 385.895 388.375 337.5 388.375C289.105 388.375 245.523 403.094 214.174 426.606C184.332 448.987 165.836 479.082 164.129 512Z" fill="white"/>
<defs>
<linearGradient id="paint0_linear_426_5702" x1="338" y1="4.94718e-06" x2="338" y2="676" gradientUnits="userSpaceOnUse">
<stop stop-color="#AB31CD"/>
<stop offset="1" stop-color="#B8A5EA"/>
</linearGradient>
</defs>
</svg>
