<svg width="25" height="24" viewBox="0 0 25 24" fill="none" xmlns="http://www.w3.org/2000/svg">
<path d="M4.8335 2.625C5.13186 2.625 5.41801 2.74353 5.62899 2.9545C5.83997 3.16548 5.9585 3.45163 5.9585 3.75V18.375C5.9585 18.582 6.1265 18.75 6.3335 18.75H20.9585C21.2569 18.75 21.543 18.8685 21.754 19.0795C21.965 19.2905 22.0835 19.5766 22.0835 19.875C22.0835 20.1734 21.965 20.4595 21.754 20.6705C21.543 20.8815 21.2569 21 20.9585 21H6.3335C5.6373 21 4.96962 20.7234 4.47734 20.2312C3.98506 19.7389 3.7085 19.0712 3.7085 18.375V3.75C3.7085 3.45163 3.82702 3.16548 4.038 2.9545C4.24898 2.74353 4.53513 2.625 4.8335 2.625ZM16.4585 8.25C16.1601 8.25 15.874 8.13147 15.663 7.9205C15.452 7.70952 15.3335 7.42337 15.3335 7.125C15.3335 6.82663 15.452 6.54048 15.663 6.3295C15.874 6.11853 16.1601 6 16.4585 6H20.5835C20.8819 6 21.168 6.11853 21.379 6.3295C21.59 6.54048 21.7085 6.82663 21.7085 7.125V11.3655C21.7085 11.6639 21.59 11.95 21.379 12.161C21.168 12.372 20.8819 12.4905 20.5835 12.4905C20.2851 12.4905 19.999 12.372 19.788 12.161C19.577 11.95 19.4585 11.6639 19.4585 11.3655V9.84L15.0035 14.295C14.7926 14.5057 14.5066 14.624 14.2085 14.624C13.9104 14.624 13.6244 14.5057 13.4135 14.295L11.2085 12.09L9.7535 13.545C9.54023 13.7437 9.25816 13.8519 8.96671 13.8468C8.67526 13.8416 8.39718 13.7236 8.19106 13.5174C7.98494 13.3113 7.86688 13.0332 7.86173 12.7418C7.85659 12.4503 7.96478 12.1683 8.1635 11.955L10.4135 9.705C10.6244 9.49432 10.9104 9.37599 11.2085 9.37599C11.5066 9.37599 11.7926 9.49432 12.0035 9.705L14.2085 11.91L17.8685 8.25H16.4585Z" fill="#595959"/>
</svg>
