<svg width="25" height="24" viewBox="0 0 25 24" fill="none" xmlns="http://www.w3.org/2000/svg">
<path d="M4.71436 2.625C5.01272 2.625 5.29887 2.74353 5.50985 2.9545C5.72083 3.16548 5.83936 3.45163 5.83936 3.75V18.375C5.83936 18.582 6.00736 18.75 6.21436 18.75H20.8394C21.1377 18.75 21.4239 18.8685 21.6348 19.0795C21.8458 19.2905 21.9644 19.5766 21.9644 19.875C21.9644 20.1734 21.8458 20.4595 21.6348 20.6705C21.4239 20.8815 21.1377 21 20.8394 21H6.21436C5.51816 21 4.85048 20.7234 4.3582 20.2312C3.86592 19.7389 3.58936 19.0712 3.58936 18.375V3.75C3.58936 3.45163 3.70788 3.16548 3.91886 2.9545C4.12984 2.74353 4.41599 2.625 4.71436 2.625ZM16.3394 8.25C16.041 8.25 15.7548 8.13147 15.5439 7.9205C15.3329 7.70952 15.2144 7.42337 15.2144 7.125C15.2144 6.82663 15.3329 6.54048 15.5439 6.3295C15.7548 6.11853 16.041 6 16.3394 6H20.4644C20.7627 6 21.0489 6.11853 21.2598 6.3295C21.4708 6.54048 21.5894 6.82663 21.5894 7.125V11.3655C21.5894 11.6639 21.4708 11.95 21.2598 12.161C21.0489 12.372 20.7627 12.4905 20.4644 12.4905C20.166 12.4905 19.8798 12.372 19.6689 12.161C19.4579 11.95 19.3394 11.6639 19.3394 11.3655V9.84L14.8844 14.295C14.6734 14.5057 14.3875 14.624 14.0894 14.624C13.7912 14.624 13.5053 14.5057 13.2944 14.295L11.0894 12.09L9.63436 13.545C9.42109 13.7437 9.13902 13.8519 8.84757 13.8468C8.55612 13.8416 8.27804 13.7236 8.07192 13.5174C7.8658 13.3113 7.74774 13.0332 7.74259 12.7418C7.73745 12.4503 7.84563 12.1683 8.04436 11.955L10.2944 9.705C10.5053 9.49432 10.7912 9.37599 11.0894 9.37599C11.3875 9.37599 11.6734 9.49432 11.8844 9.705L14.0894 11.91L17.7494 8.25H16.3394Z" fill="#5861E2"/>
</svg>
