<svg width="25" height="24" viewBox="0 0 25 24" fill="none" xmlns="http://www.w3.org/2000/svg">
<path d="M8.58936 13C8.03707 13 7.58936 13.4477 7.58936 14C7.58936 14.5523 8.03707 15 8.58936 15V13ZM16.5894 15C17.1416 15 17.5894 14.5523 17.5894 14C17.5894 13.4477 17.1416 13 16.5894 13V15ZM8.58936 9C8.03707 9 7.58936 9.44772 7.58936 10C7.58936 10.5523 8.03707 11 8.58936 11V9ZM16.5894 11C17.1416 11 17.5894 10.5523 17.5894 10C17.5894 9.44772 17.1416 9 16.5894 9V11ZM8.58936 5C8.03707 5 7.58936 5.44772 7.58936 6C7.58936 6.55228 8.03707 7 8.58936 7V5ZM16.5894 7C17.1416 7 17.5894 6.55228 17.5894 6C17.5894 5.44772 17.1416 5 16.5894 5V7ZM8.58936 17C8.03707 17 7.58936 17.4477 7.58936 18C7.58936 18.5523 8.03707 19 8.58936 19V17ZM12.5894 19C13.1416 19 13.5894 18.5523 13.5894 18C13.5894 17.4477 13.1416 17 12.5894 17V19ZM5.66741 21.7748L5.20643 22.6622L5.66741 21.7748ZM4.81453 20.9219L3.92712 21.3829L4.81453 20.9219ZM20.3642 20.9219L21.2516 21.3829L20.3642 20.9219ZM19.5113 21.7748L19.9723 22.6622L19.5113 21.7748ZM19.5113 2.22517L19.9723 1.33776L19.5113 2.22517ZM20.3642 3.07805L21.2516 2.61708L20.3642 3.07805ZM5.66741 2.22517L5.20643 1.33776L5.66741 2.22517ZM4.81453 3.07805L3.92712 2.61708L4.81453 3.07805ZM8.58936 15H16.5894V13H8.58936V15ZM8.58936 11H16.5894V9H8.58936V11ZM8.58936 7H16.5894V5H8.58936V7ZM8.58936 19H12.5894V17H8.58936V19ZM7.80936 3H17.3694V1H7.80936V3ZM19.5894 5.22V18.78H21.5894V5.22H19.5894ZM17.3694 21H7.80936V23H17.3694V21ZM5.58936 18.78V5.22H3.58936V18.78H5.58936ZM7.80936 21C7.22308 21 6.84452 20.9992 6.55658 20.9753C6.2806 20.9524 6.17859 20.9135 6.12838 20.8874L5.20643 22.6622C5.5897 22.8613 5.98917 22.935 6.39106 22.9684C6.78097 23.0008 7.25665 23 7.80936 23V21ZM3.58936 18.78C3.58936 19.3327 3.58855 19.8084 3.62093 20.1983C3.65431 20.6002 3.72802 20.9997 3.92712 21.3829L5.70194 20.461C5.67586 20.4108 5.63699 20.3088 5.61407 20.0328C5.59016 19.7448 5.58936 19.3663 5.58936 18.78H3.58936ZM6.12838 20.8874C5.94574 20.7925 5.79682 20.6436 5.70194 20.461L3.92712 21.3829C4.21174 21.9309 4.6585 22.3776 5.20643 22.6622L6.12838 20.8874ZM19.5894 18.78C19.5894 19.3663 19.5886 19.7448 19.5646 20.0328C19.5417 20.3088 19.5029 20.4108 19.4768 20.461L21.2516 21.3829C21.4507 20.9997 21.5244 20.6002 21.5578 20.1983C21.5902 19.8084 21.5894 19.3327 21.5894 18.78H19.5894ZM17.3694 23C17.9221 23 18.3977 23.0008 18.7877 22.9684C19.1895 22.935 19.589 22.8613 19.9723 22.6622L19.0503 20.8874C19.0001 20.9135 18.8981 20.9524 18.6221 20.9753C18.3342 20.9992 17.9556 21 17.3694 21V23ZM19.4768 20.461C19.3819 20.6436 19.233 20.7925 19.0503 20.8874L19.9723 22.6622C20.5202 22.3776 20.967 21.9309 21.2516 21.3829L19.4768 20.461ZM17.3694 3C17.9556 3 18.3342 3.0008 18.6221 3.02472C18.8981 3.04763 19.0001 3.0865 19.0503 3.11259L19.9723 1.33776C19.589 1.13867 19.1895 1.06495 18.7877 1.03158C18.3977 0.999196 17.9221 1 17.3694 1V3ZM21.5894 5.22C21.5894 4.66729 21.5902 4.19162 21.5578 3.8017C21.5244 3.39982 21.4507 3.00034 21.2516 2.61708L19.4768 3.53903C19.5029 3.58924 19.5417 3.69125 19.5646 3.96722C19.5886 4.25517 19.5894 4.63372 19.5894 5.22H21.5894ZM19.0503 3.11259C19.233 3.20746 19.3819 3.35638 19.4768 3.53903L21.2516 2.61708C20.967 2.06915 20.5202 1.62239 19.9723 1.33776L19.0503 3.11259ZM7.80936 1C7.25665 1 6.78097 0.999196 6.39106 1.03158C5.98917 1.06495 5.5897 1.13867 5.20643 1.33776L6.12838 3.11259C6.17859 3.0865 6.2806 3.04763 6.55658 3.02472C6.84452 3.0008 7.22308 3 7.80936 3V1ZM5.58936 5.22C5.58936 4.63372 5.59016 4.25517 5.61407 3.96722C5.63699 3.69125 5.67586 3.58924 5.70194 3.53903L3.92712 2.61708C3.72802 3.00034 3.65431 3.39981 3.62093 3.8017C3.58855 4.19162 3.58936 4.66729 3.58936 5.22H5.58936ZM5.20643 1.33776C4.6585 1.62239 4.21174 2.06915 3.92712 2.61708L5.70194 3.53903C5.79682 3.35638 5.94574 3.20746 6.12838 3.11259L5.20643 1.33776Z" fill="#5861E2"/>
</svg>
