<svg width="25" height="24" viewBox="0 0 25 24" fill="none" xmlns="http://www.w3.org/2000/svg">
<path d="M8.7085 13C8.15621 13 7.7085 13.4477 7.7085 14C7.7085 14.5523 8.15621 15 8.7085 15V13ZM16.7085 15C17.2608 15 17.7085 14.5523 17.7085 14C17.7085 13.4477 17.2608 13 16.7085 13V15ZM8.7085 9C8.15621 9 7.7085 9.44772 7.7085 10C7.7085 10.5523 8.15621 11 8.7085 11V9ZM16.7085 11C17.2608 11 17.7085 10.5523 17.7085 10C17.7085 9.44772 17.2608 9 16.7085 9V11ZM8.7085 5C8.15621 5 7.7085 5.44772 7.7085 6C7.7085 6.55228 8.15621 7 8.7085 7V5ZM16.7085 7C17.2608 7 17.7085 6.55228 17.7085 6C17.7085 5.44772 17.2608 5 16.7085 5V7ZM8.7085 17C8.15621 17 7.7085 17.4477 7.7085 18C7.7085 18.5523 8.15621 19 8.7085 19V17ZM12.7085 19C13.2608 19 13.7085 18.5523 13.7085 18C13.7085 17.4477 13.2608 17 12.7085 17V19ZM5.78655 21.7748L5.32557 22.6622L5.78655 21.7748ZM4.93367 20.9219L4.04626 21.3829L4.93367 20.9219ZM20.4833 20.9219L21.3707 21.3829L20.4833 20.9219ZM19.6304 21.7748L20.0914 22.6622L19.6304 21.7748ZM19.6304 2.22517L20.0914 1.33776L19.6304 2.22517ZM20.4833 3.07805L21.3707 2.61708L20.4833 3.07805ZM5.78655 2.22517L5.32557 1.33776L5.78655 2.22517ZM4.93367 3.07805L4.04626 2.61708L4.93367 3.07805ZM8.7085 15H16.7085V13H8.7085V15ZM8.7085 11H16.7085V9H8.7085V11ZM8.7085 7H16.7085V5H8.7085V7ZM8.7085 19H12.7085V17H8.7085V19ZM7.9285 3H17.4885V1H7.9285V3ZM19.7085 5.22V18.78H21.7085V5.22H19.7085ZM17.4885 21H7.9285V23H17.4885V21ZM5.7085 18.78V5.22H3.7085V18.78H5.7085ZM7.9285 21C7.34222 21 6.96366 20.9992 6.67572 20.9753C6.39974 20.9524 6.29773 20.9135 6.24752 20.8874L5.32557 22.6622C5.70884 22.8613 6.10831 22.935 6.5102 22.9684C6.90011 23.0008 7.37579 23 7.9285 23V21ZM3.7085 18.78C3.7085 19.3327 3.70769 19.8084 3.74007 20.1983C3.77345 20.6002 3.84716 20.9997 4.04626 21.3829L5.82108 20.461C5.795 20.4108 5.75613 20.3088 5.73321 20.0328C5.7093 19.7448 5.7085 19.3663 5.7085 18.78H3.7085ZM6.24752 20.8874C6.06488 20.7925 5.91596 20.6436 5.82108 20.461L4.04626 21.3829C4.33088 21.9309 4.77764 22.3776 5.32557 22.6622L6.24752 20.8874ZM19.7085 18.78C19.7085 19.3663 19.7077 19.7448 19.6838 20.0328C19.6609 20.3088 19.622 20.4108 19.5959 20.461L21.3707 21.3829C21.5698 20.9997 21.6435 20.6002 21.6769 20.1983C21.7093 19.8084 21.7085 19.3327 21.7085 18.78H19.7085ZM17.4885 23C18.0412 23 18.5169 23.0008 18.9068 22.9684C19.3087 22.935 19.7082 22.8613 20.0914 22.6622L19.1695 20.8874C19.1193 20.9135 19.0172 20.9524 18.7413 20.9753C18.4533 20.9992 18.0748 21 17.4885 21V23ZM19.5959 20.461C19.501 20.6436 19.3521 20.7925 19.1695 20.8874L20.0914 22.6622C20.6393 22.3776 21.0861 21.9309 21.3707 21.3829L19.5959 20.461ZM17.4885 3C18.0748 3 18.4533 3.0008 18.7413 3.02472C19.0172 3.04763 19.1193 3.0865 19.1695 3.11259L20.0914 1.33776C19.7082 1.13867 19.3087 1.06495 18.9068 1.03158C18.5169 0.999196 18.0412 1 17.4885 1V3ZM21.7085 5.22C21.7085 4.66729 21.7093 4.19162 21.6769 3.8017C21.6435 3.39982 21.5698 3.00034 21.3707 2.61708L19.5959 3.53903C19.622 3.58924 19.6609 3.69125 19.6838 3.96722C19.7077 4.25517 19.7085 4.63372 19.7085 5.22H21.7085ZM19.1695 3.11259C19.3521 3.20746 19.501 3.35638 19.5959 3.53903L21.3707 2.61708C21.0861 2.06915 20.6393 1.62239 20.0914 1.33776L19.1695 3.11259ZM7.9285 1C7.37579 1 6.90011 0.999196 6.5102 1.03158C6.10831 1.06495 5.70884 1.13867 5.32557 1.33776L6.24752 3.11259C6.29773 3.0865 6.39974 3.04763 6.67572 3.02472C6.96366 3.0008 7.34222 3 7.9285 3V1ZM5.7085 5.22C5.7085 4.63372 5.7093 4.25517 5.73321 3.96722C5.75613 3.69125 5.795 3.58924 5.82108 3.53903L4.04626 2.61708C3.84716 3.00034 3.77345 3.39981 3.74007 3.8017C3.70769 4.19162 3.7085 4.66729 3.7085 5.22H5.7085ZM5.32557 1.33776C4.77764 1.62239 4.33088 2.06915 4.04626 2.61708L5.82108 3.53903C5.91596 3.35638 6.06488 3.20746 6.24752 3.11259L5.32557 1.33776Z" fill="#595959"/>
</svg>
