<svg width="335" height="336" viewBox="0 0 335 336" fill="none" xmlns="http://www.w3.org/2000/svg">
<g clip-path="url(#clip0_802_4892)">
<path d="M0.109646 234.87C0.109646 215.12 -0.220354 195.35 0.249646 175.61C0.479646 166.17 4.54965 157.7 10.7596 150.54C20.2796 139.56 32.5796 135.19 46.8996 135.24C82.5796 135.37 118.27 135.22 153.95 135.32C165.76 135.35 176.69 138.52 185.49 146.78C193.58 154.37 199.05 163.64 199.18 175.01C199.61 213.34 199.85 251.67 199.92 290C199.94 302.1 196.18 313.19 187.59 321.95C180.64 329.04 172.15 333.8 162.06 334.85C157.29 335.35 152.46 335.5 147.66 335.51C112.1 335.57 76.5396 335.87 40.9796 335.41C28.3696 335.25 17.8296 329.07 9.87965 319.21C2.62965 310.23 -0.160354 299.75 0.0596461 288.14C0.399646 270.39 0.149646 252.63 0.149646 234.88H0.109646V234.87ZM24.2896 235.93C24.3996 235.93 24.5096 235.93 24.6196 235.93C24.6196 255.28 24.5496 274.63 24.6496 293.97C24.6896 302.33 33.7796 311.19 42.0896 311.2C79.9996 311.26 117.91 311.31 155.81 311.27C158.16 311.27 160.64 310.77 162.85 309.93C172.33 306.31 175.87 298.57 175.91 289.14C176.06 253.4 176.07 217.66 175.84 181.92C175.81 177.69 174.68 173.08 172.76 169.31C168.75 161.44 161.13 159.38 152.95 159.36C117.04 159.29 81.1196 159.24 45.2096 159.38C32.8296 159.43 24.2596 167.45 24.2796 180.06C24.3096 198.68 24.2796 217.3 24.2796 235.92L24.2896 235.93Z" fill="#939393"/>
<path d="M186.78 0.220119C194.53 -0.949881 202.54 2.79012 210.65 5.64012C226.26 11.1201 241.73 17.0101 257.29 22.6501C274.08 28.7301 291.07 34.3101 307.67 40.8801C321.95 46.5301 330.91 57.2601 334.06 72.6101C336.3 83.5001 333.91 93.7301 330.23 103.85C324.49 119.63 318.78 135.42 313.09 151.21C306.82 168.6 300.89 186.11 294.23 203.35C289.52 215.54 280.55 223.69 268.23 228.47C255.33 233.47 243.18 231.05 231.17 225.94C225.09 223.35 222.33 215.94 224.46 210.17C226.71 204.11 233.32 201.52 239.84 203.48C244.57 204.9 249.48 205.95 254.39 206.48C261.74 207.27 269.47 200.94 271.84 194.35C278.7 175.28 285.48 156.17 292.28 137.08C298.23 120.39 304.26 103.73 310.07 86.9901C313.23 77.8801 307.93 66.6001 299.04 63.3801C280.08 56.5101 261.04 49.8401 242.06 43.0001C226.01 37.2201 210.1 31.0301 193.96 25.5401C182.2 21.5501 171.22 25.1101 166.27 39.4201C159.87 57.9301 153.09 76.3101 146.48 94.7501C145.37 97.8501 144.43 101.01 143.17 104.04C140.83 109.69 136.38 112.34 130.16 112.04C126.15 111.85 121.48 107.87 120.28 103C119.79 100.99 119.92 98.5301 120.6 96.5601C126.84 78.5301 133.14 60.5201 139.69 42.5901C142.51 34.8601 144.98 26.7601 149.29 19.8801C157.48 6.82012 169.6 -0.349881 186.78 0.220119Z" fill="#939393"/>
<path d="M203.75 115.23C202.96 108.37 210.51 98.8099 219.32 99.2599C229.4 99.7799 235.78 106.44 235.83 115.58C235.87 124.17 228.48 131.44 218.94 131.6C211.68 131.72 202.81 123.44 203.76 115.23H203.75Z" fill="#939393"/>
<path d="M243.51 182.55C234.8 183.1 227.59 174.7 227.71 166.43C227.82 158.63 233.87 151.4 241.58 150.9C254.24 150.08 259.74 158.51 259.76 166.6C259.78 174.93 254.02 182.31 243.51 182.55Z" fill="#939393"/>
<path d="M211.24 64.1801C211.25 72.9801 205.15 79.7701 197.26 79.7601C186.07 79.7501 180.18 74.1801 179.71 64.2301C179.36 56.8601 186.97 47.9201 194.91 48.1301C204.27 48.3901 212.29 55.0101 211.25 64.1701L211.24 64.1801Z" fill="#939393"/>
<path d="M115.41 235.86C115.41 244.74 108.62 251.46 99.8604 251.61C90.7804 251.77 83.5404 242.8 83.8204 235.2C84.1204 227.2 90.6204 219.33 99.2204 219.37C107.62 219.4 116.72 225.36 115.4 235.86H115.41Z" fill="#939393"/>
<path d="M75.7297 195.26C76.1797 205.99 67.5297 211.58 59.9197 211.61C51.2797 211.64 44.3397 204.95 44.1297 195.42C43.9297 186.47 51.8297 179.33 59.5497 179.4C68.6697 179.48 76.6997 187 75.7397 195.26H75.7297Z" fill="#939393"/>
<path d="M139.83 259.83C149.23 258.76 156.22 267.89 155.9 276.18C155.59 284.28 148.48 291.24 140.11 291.42C129.57 291.65 123.91 283.37 123.71 275.04C123.53 267.57 130.97 258.47 139.83 259.83Z" fill="#939393"/>
<path d="M44.23 275.3C44.23 266.53 50.44 260.4 58.34 259.67C68.86 258.7 76.81 267.18 75.87 277.04C75.14 284.71 68.29 291.19 59.78 291.45C51.26 291.71 43.57 284.19 44.23 275.3Z" fill="#939393"/>
<path d="M139.47 211.06C131.97 212.39 123.63 204.28 123.74 195.23C123.84 186.63 131.04 179.8 138.51 179.41C148.67 178.88 155.59 187.44 155.95 194.59C156.37 203.17 148.29 212.42 139.48 211.06H139.47Z" fill="#939393"/>
</g>
<defs>
<clipPath id="clip0_802_4892">
<rect width="334.92" height="335.67" fill="white"/>
</clipPath>
</defs>
</svg>
