<svg width="93" height="32" viewBox="0 0 93 32" fill="none" xmlns="http://www.w3.org/2000/svg">
<g filter="url(#filter0_d_756_6660)">
<path d="M43.5574 13.0488C46.898 13.0488 48.3166 15.2086 48.3166 17.7006C48.3166 19.6278 47.4319 22.0805 45.1743 22.745L48.6217 28.5825H45.7387L42.3524 22.961H38.4932C38.2491 22.961 38.1118 22.9327 38.1118 23.1985V28.5825H35.5187V22.4355C35.5187 20.6911 36.2203 19.9767 37.8525 19.9767H43.6337C45.0981 19.9767 45.693 19.1737 45.693 18.0772C45.693 16.9807 45.0523 16.5253 43.6337 16.5253H35.5034V13.0654H43.5422L43.5574 13.0488Z" fill="url(#paint0_linear_756_6660)"/>
<path d="M43.5574 13.0488C46.898 13.0488 48.3166 15.2086 48.3166 17.7006C48.3166 19.6278 47.4319 22.0805 45.1743 22.745L48.6217 28.5825H45.7387L42.3524 22.961H38.4932C38.2491 22.961 38.1118 22.9327 38.1118 23.1985V28.5825H35.5187V22.4355C35.5187 20.6911 36.2203 19.9767 37.8525 19.9767H43.6337C45.0981 19.9767 45.693 19.1737 45.693 18.0772C45.693 16.9807 45.0523 16.5253 43.6337 16.5253H35.5034V13.0654H43.5422L43.5574 13.0488Z" fill="#4656E2"/>
</g>
<g filter="url(#filter1_d_756_6660)">
<path d="M54.4097 28.8484H51.6157V16.5211C51.6157 14.4444 52.775 13.0488 55.1699 13.0488C57.2749 13.0488 58.4799 14.1453 58.9071 16.1057L60.9968 24.8279C61.1341 25.3762 61.4392 25.7084 61.9883 25.7084C62.5375 25.7084 62.8425 25.3928 62.9798 24.8279L65.0696 16.1057C65.4815 14.1453 66.5797 13.0488 68.7153 13.0488C71.1101 13.0488 72.2694 14.4444 72.2694 16.5211V28.8484H69.3598V18.071C69.3598 17.4729 69.1636 17.0742 68.4925 17.0742C67.8823 17.0742 67.739 17.3898 67.617 17.9049L65.4815 25.9908C65.0238 28.0343 64.0171 29.1142 61.9731 29.1142C59.9291 29.1142 58.8308 27.9845 58.3884 25.9908L56.2834 17.9049C56.1766 17.4064 56.0457 17.0742 55.4508 17.0742C54.7643 17.0742 54.5985 17.4729 54.5985 18.071L54.6563 28.8484H54.4097Z" fill="url(#paint1_linear_756_6660)"/>
<path d="M54.4097 28.8484H51.6157V16.5211C51.6157 14.4444 52.775 13.0488 55.1699 13.0488C57.2749 13.0488 58.4799 14.1453 58.9071 16.1057L60.9968 24.8279C61.1341 25.3762 61.4392 25.7084 61.9883 25.7084C62.5375 25.7084 62.8425 25.3928 62.9798 24.8279L65.0696 16.1057C65.4815 14.1453 66.5797 13.0488 68.7153 13.0488C71.1101 13.0488 72.2694 14.4444 72.2694 16.5211V28.8484H69.3598V18.071C69.3598 17.4729 69.1636 17.0742 68.4925 17.0742C67.8823 17.0742 67.739 17.3898 67.617 17.9049L65.4815 25.9908C65.0238 28.0343 64.0171 29.1142 61.9731 29.1142C59.9291 29.1142 58.8308 27.9845 58.3884 25.9908L56.2834 17.9049C56.1766 17.4064 56.0457 17.0742 55.4508 17.0742C54.7643 17.0742 54.5985 17.4729 54.5985 18.071L54.6563 28.8484H54.4097Z" fill="#4656E2"/>
</g>
<g filter="url(#filter2_d_756_6660)">
<path d="M78.4519 28.8317H75.6274V16.4214C75.6274 14.3945 76.7257 13.0488 79.0291 13.0488C81.0883 13.0488 82.0031 14.6517 82.8996 16.4214L86.9611 24.7424C87.1288 25.1079 87.4187 25.3903 87.9068 25.3903C88.4559 25.3903 88.5891 25.0414 88.5891 24.5098V13.3313H91.3999V25.725C91.3999 27.7685 90.2711 29.1308 87.9983 29.1308C85.939 29.1308 84.8081 27.6361 83.8763 25.8807L80.0358 17.9288C79.8375 17.4637 79.6847 17.1676 79.2271 17.1676C78.6322 17.1676 78.4519 17.6132 78.4519 18.1614L78.5387 28.8484L78.4519 28.8317Z" fill="url(#paint2_linear_756_6660)"/>
<path d="M78.4519 28.8317H75.6274V16.4214C75.6274 14.3945 76.7257 13.0488 79.0291 13.0488C81.0883 13.0488 82.0031 14.6517 82.8996 16.4214L86.9611 24.7424C87.1288 25.1079 87.4187 25.3903 87.9068 25.3903C88.4559 25.3903 88.5891 25.0414 88.5891 24.5098V13.3313H91.3999V25.725C91.3999 27.7685 90.2711 29.1308 87.9983 29.1308C85.939 29.1308 84.8081 27.6361 83.8763 25.8807L80.0358 17.9288C79.8375 17.4637 79.6847 17.1676 79.2271 17.1676C78.6322 17.1676 78.4519 17.6132 78.4519 18.1614L78.5387 28.8484L78.4519 28.8317Z" fill="#4656E2"/>
</g>
<g filter="url(#filter3_d_756_6660)">
<path d="M18.1263 1H2V1.00496C2 5.43751 5.58969 9.03167 10.0198 9.03167H18.4189C21.2971 9.03167 23.6323 11.3658 23.6323 14.248C23.6323 17.1278 21.2995 19.4644 18.4189 19.4644H6.61107V23.7109C6.61107 25.8019 8.30427 27.4961 10.3941 27.4961H18.1263C25.4371 27.4961 31.3645 21.5653 31.3645 14.2505C31.3645 6.93074 25.4371 1 18.1263 1Z" fill="url(#paint3_linear_756_6660)"/>
<path d="M18.1263 1H2V1.00496C2 5.43751 5.58969 9.03167 10.0198 9.03167H18.4189C21.2971 9.03167 23.6323 11.3658 23.6323 14.248C23.6323 17.1278 21.2995 19.4644 18.4189 19.4644H6.61107V23.7109C6.61107 25.8019 8.30427 27.4961 10.3941 27.4961H18.1263C25.4371 27.4961 31.3645 21.5653 31.3645 14.2505C31.3645 6.93074 25.4371 1 18.1263 1Z" fill="#5246E2"/>
</g>
<g filter="url(#filter4_d_756_6660)">
<path d="M18.1263 1H2C2 5.43255 5.58969 9.02423 10.0198 9.02423H18.1239C18.2007 9.02423 18.2776 9.02919 18.3544 9.02919H18.4164C18.4362 9.02919 18.4585 9.03167 18.4784 9.03167C24.2347 9.18298 29.0764 13.0103 30.7423 18.2564C31.1439 16.9914 31.3621 15.642 31.3621 14.2431C31.3645 6.93074 25.4371 1 18.1263 1Z" fill="url(#paint4_linear_756_6660)"/>
</g>
<g filter="url(#filter5_d_756_6660)">
<path d="M23.6336 14.2456C23.6336 17.1254 21.3008 19.462 18.4201 19.462H10.1698V19.4397C8.18651 19.3231 6.6123 17.681 6.6123 15.6669V23.7085C6.6123 25.7995 8.30551 27.4936 10.3954 27.4936C17.7061 27.4936 23.6336 21.5629 23.6336 14.2481V14.2456Z" fill="url(#paint5_linear_756_6660)"/>
</g>
<g filter="url(#filter6_d_756_6660)">
<path d="M18.7007 14.1934L14.0613 11.3712L14.0613 17.0156L18.7007 14.1934Z" fill="url(#paint6_linear_756_6660)"/>
<path d="M18.7007 14.1934L14.0613 11.3712L14.0613 17.0156L18.7007 14.1934Z" fill="#4C2BDE"/>
</g>
<defs>
<filter id="filter0_d_756_6660" x="34.5034" y="13.0488" width="15.1182" height="17.5337" filterUnits="userSpaceOnUse" color-interpolation-filters="sRGB">
<feFlood flood-opacity="0" result="BackgroundImageFix"/>
<feColorMatrix in="SourceAlpha" type="matrix" values="0 0 0 0 0 0 0 0 0 0 0 0 0 0 0 0 0 0 127 0" result="hardAlpha"/>
<feOffset dy="1"/>
<feGaussianBlur stdDeviation="0.5"/>
<feComposite in2="hardAlpha" operator="out"/>
<feColorMatrix type="matrix" values="0 0 0 0 0.871855 0 0 0 0 0.820833 0 0 0 0 1 0 0 0 1 0"/>
<feBlend mode="normal" in2="BackgroundImageFix" result="effect1_dropShadow_756_6660"/>
<feBlend mode="normal" in="SourceGraphic" in2="effect1_dropShadow_756_6660" result="shape"/>
</filter>
<filter id="filter1_d_756_6660" x="50.6157" y="13.0488" width="22.6538" height="18.0654" filterUnits="userSpaceOnUse" color-interpolation-filters="sRGB">
<feFlood flood-opacity="0" result="BackgroundImageFix"/>
<feColorMatrix in="SourceAlpha" type="matrix" values="0 0 0 0 0 0 0 0 0 0 0 0 0 0 0 0 0 0 127 0" result="hardAlpha"/>
<feOffset dy="1"/>
<feGaussianBlur stdDeviation="0.5"/>
<feComposite in2="hardAlpha" operator="out"/>
<feColorMatrix type="matrix" values="0 0 0 0 0.871855 0 0 0 0 0.820833 0 0 0 0 1 0 0 0 1 0"/>
<feBlend mode="normal" in2="BackgroundImageFix" result="effect1_dropShadow_756_6660"/>
<feBlend mode="normal" in="SourceGraphic" in2="effect1_dropShadow_756_6660" result="shape"/>
</filter>
<filter id="filter2_d_756_6660" x="74.6274" y="13.0488" width="17.7725" height="18.082" filterUnits="userSpaceOnUse" color-interpolation-filters="sRGB">
<feFlood flood-opacity="0" result="BackgroundImageFix"/>
<feColorMatrix in="SourceAlpha" type="matrix" values="0 0 0 0 0 0 0 0 0 0 0 0 0 0 0 0 0 0 127 0" result="hardAlpha"/>
<feOffset dy="1"/>
<feGaussianBlur stdDeviation="0.5"/>
<feComposite in2="hardAlpha" operator="out"/>
<feColorMatrix type="matrix" values="0 0 0 0 0.871855 0 0 0 0 0.820833 0 0 0 0 1 0 0 0 1 0"/>
<feBlend mode="normal" in2="BackgroundImageFix" result="effect1_dropShadow_756_6660"/>
<feBlend mode="normal" in="SourceGraphic" in2="effect1_dropShadow_756_6660" result="shape"/>
</filter>
<filter id="filter3_d_756_6660" x="1" y="1" width="31.3647" height="28.4961" filterUnits="userSpaceOnUse" color-interpolation-filters="sRGB">
<feFlood flood-opacity="0" result="BackgroundImageFix"/>
<feColorMatrix in="SourceAlpha" type="matrix" values="0 0 0 0 0 0 0 0 0 0 0 0 0 0 0 0 0 0 127 0" result="hardAlpha"/>
<feOffset dy="1"/>
<feGaussianBlur stdDeviation="0.5"/>
<feComposite in2="hardAlpha" operator="out"/>
<feColorMatrix type="matrix" values="0 0 0 0 0.871855 0 0 0 0 0.820833 0 0 0 0 1 0 0 0 1 0"/>
<feBlend mode="normal" in2="BackgroundImageFix" result="effect1_dropShadow_756_6660"/>
<feBlend mode="normal" in="SourceGraphic" in2="effect1_dropShadow_756_6660" result="shape"/>
</filter>
<filter id="filter4_d_756_6660" x="0" y="0" width="33.3623" height="21.2563" filterUnits="userSpaceOnUse" color-interpolation-filters="sRGB">
<feFlood flood-opacity="0" result="BackgroundImageFix"/>
<feColorMatrix in="SourceAlpha" type="matrix" values="0 0 0 0 0 0 0 0 0 0 0 0 0 0 0 0 0 0 127 0" result="hardAlpha"/>
<feOffset dy="1"/>
<feGaussianBlur stdDeviation="1"/>
<feComposite in2="hardAlpha" operator="out"/>
<feColorMatrix type="matrix" values="0 0 0 0 1 0 0 0 0 1 0 0 0 0 1 0 0 0 1 0"/>
<feBlend mode="normal" in2="BackgroundImageFix" result="effect1_dropShadow_756_6660"/>
<feBlend mode="normal" in="SourceGraphic" in2="effect1_dropShadow_756_6660" result="shape"/>
</filter>
<filter id="filter5_d_756_6660" x="4.6123" y="13.2456" width="21.0215" height="17.248" filterUnits="userSpaceOnUse" color-interpolation-filters="sRGB">
<feFlood flood-opacity="0" result="BackgroundImageFix"/>
<feColorMatrix in="SourceAlpha" type="matrix" values="0 0 0 0 0 0 0 0 0 0 0 0 0 0 0 0 0 0 127 0" result="hardAlpha"/>
<feOffset dy="1"/>
<feGaussianBlur stdDeviation="1"/>
<feComposite in2="hardAlpha" operator="out"/>
<feColorMatrix type="matrix" values="0 0 0 0 1 0 0 0 0 1 0 0 0 0 1 0 0 0 1 0"/>
<feBlend mode="normal" in2="BackgroundImageFix" result="effect1_dropShadow_756_6660"/>
<feBlend mode="normal" in="SourceGraphic" in2="effect1_dropShadow_756_6660" result="shape"/>
</filter>
<filter id="filter6_d_756_6660" x="13.0615" y="11.3711" width="6.63916" height="7.64453" filterUnits="userSpaceOnUse" color-interpolation-filters="sRGB">
<feFlood flood-opacity="0" result="BackgroundImageFix"/>
<feColorMatrix in="SourceAlpha" type="matrix" values="0 0 0 0 0 0 0 0 0 0 0 0 0 0 0 0 0 0 127 0" result="hardAlpha"/>
<feOffset dy="1"/>
<feGaussianBlur stdDeviation="0.5"/>
<feComposite in2="hardAlpha" operator="out"/>
<feColorMatrix type="matrix" values="0 0 0 0 0.871951 0 0 0 0 0.825 0 0 0 0 1 0 0 0 1 0"/>
<feBlend mode="normal" in2="BackgroundImageFix" result="effect1_dropShadow_756_6660"/>
<feBlend mode="normal" in="SourceGraphic" in2="effect1_dropShadow_756_6660" result="shape"/>
</filter>
<linearGradient id="paint0_linear_756_6660" x1="24.4514" y1="8.50768" x2="40.799" y2="4.90233" gradientUnits="userSpaceOnUse">
<stop stop-color="#BC3DF8"/>
<stop offset="1" stop-color="#6C27DC"/>
</linearGradient>
<linearGradient id="paint1_linear_756_6660" x1="34.2153" y1="8.35227" x2="58.4709" y2="0.208718" gradientUnits="userSpaceOnUse">
<stop stop-color="#BC3DF8"/>
<stop offset="1" stop-color="#6C27DC"/>
</linearGradient>
<linearGradient id="paint2_linear_756_6660" x1="62.3394" y1="8.34741" x2="81.6816" y2="3.39336" gradientUnits="userSpaceOnUse">
<stop stop-color="#BC3DF8"/>
<stop offset="1" stop-color="#6C27DC"/>
</linearGradient>
<linearGradient id="paint3_linear_756_6660" x1="24.7421" y1="9.62417" x2="23.5325" y2="29.9606" gradientUnits="userSpaceOnUse">
<stop stop-color="#FF33DA"/>
<stop offset="0.406493" stop-color="#CD20E9"/>
<stop offset="1" stop-color="#511BB2"/>
</linearGradient>
<linearGradient id="paint4_linear_756_6660" x1="10.5347" y1="2.00408" x2="31.0235" y2="1.76918" gradientUnits="userSpaceOnUse">
<stop stop-color="#5E2EE6"/>
<stop offset="1" stop-color="#6459E2"/>
</linearGradient>
<linearGradient id="paint5_linear_756_6660" x1="15.0782" y1="24.7277" x2="20.1956" y2="18.4821" gradientUnits="userSpaceOnUse">
<stop stop-color="#5E2EE6"/>
<stop offset="1" stop-color="#6459E2"/>
</linearGradient>
<linearGradient id="paint6_linear_756_6660" x1="19.6831" y1="13.3363" x2="11.5068" y2="10.579" gradientUnits="userSpaceOnUse">
<stop stop-color="#FE1786"/>
<stop offset="0.498952" stop-color="#AD00FF"/>
<stop offset="1" stop-color="#6A00BD"/>
</linearGradient>
</defs>
</svg>
