<svg width="93" height="32" viewBox="0 0 93 32" fill="none" xmlns="http://www.w3.org/2000/svg">
<g filter="url(#filter0_d_747_6455)">
<path d="M43.3904 13C46.7175 13 48.1303 15.151 48.1303 17.6329C48.1303 19.5523 47.2492 21.9949 45.0008 22.6568L48.4342 28.4706H45.5629L42.1903 22.8719H38.3467C38.1037 22.8719 37.9669 22.8437 37.9669 23.1084V28.4706H35.3843V22.3486C35.3843 20.6112 36.0831 19.8997 37.7087 19.8997H43.4664C44.9248 19.8997 45.5173 19.1 45.5173 18.0079C45.5173 16.9159 44.8792 16.4624 43.4664 16.4624H35.3691V13.0165H43.3753L43.3904 13Z" fill="url(#paint0_linear_747_6455)"/>
<path d="M43.3904 13C46.7175 13 48.1303 15.151 48.1303 17.6329C48.1303 19.5523 47.2492 21.9949 45.0008 22.6568L48.4342 28.4706H45.5629L42.1903 22.8719H38.3467C38.1037 22.8719 37.9669 22.8437 37.9669 23.1084V28.4706H35.3843V22.3486C35.3843 20.6112 36.0831 19.8997 37.7087 19.8997H43.4664C44.9248 19.8997 45.5173 19.1 45.5173 18.0079C45.5173 16.9159 44.8792 16.4624 43.4664 16.4624H35.3691V13.0165H43.3753L43.3904 13Z" fill="#5962E2"/>
</g>
<g filter="url(#filter1_d_747_6455)">
<path d="M54.1977 28.7354H51.415V16.4581C51.415 14.3899 52.5696 13 54.9547 13C57.0512 13 58.2514 14.092 58.6768 16.0445L60.758 24.7312C60.8948 25.2773 61.1986 25.6082 61.7455 25.6082C62.2924 25.6082 62.5963 25.2938 62.733 24.7312L64.8143 16.0445C65.2245 14.092 66.3183 13 68.4451 13C70.8303 13 71.9848 14.3899 71.9848 16.4581V28.7354H69.087V18.0018C69.087 17.4061 68.8917 17.009 68.2232 17.009C67.6156 17.009 67.4728 17.3234 67.3513 17.8363L65.2245 25.8894C64.7687 27.9246 63.766 29.0001 61.7303 29.0001C59.6946 29.0001 58.6008 27.875 58.1602 25.8894L56.0638 17.8363C55.9574 17.3399 55.827 17.009 55.2345 17.009C54.5509 17.009 54.3857 17.4061 54.3857 18.0018L54.4433 28.7354H54.1977Z" fill="url(#paint1_linear_747_6455)"/>
<path d="M54.1977 28.7354H51.415V16.4581C51.415 14.3899 52.5696 13 54.9547 13C57.0512 13 58.2514 14.092 58.6768 16.0445L60.758 24.7312C60.8948 25.2773 61.1986 25.6082 61.7455 25.6082C62.2924 25.6082 62.5963 25.2938 62.733 24.7312L64.8143 16.0445C65.2245 14.092 66.3183 13 68.4451 13C70.8303 13 71.9848 14.3899 71.9848 16.4581V28.7354H69.087V18.0018C69.087 17.4061 68.8917 17.009 68.2232 17.009C67.6156 17.009 67.4728 17.3234 67.3513 17.8363L65.2245 25.8894C64.7687 27.9246 63.766 29.0001 61.7303 29.0001C59.6946 29.0001 58.6008 27.875 58.1602 25.8894L56.0638 17.8363C55.9574 17.3399 55.827 17.009 55.2345 17.009C54.5509 17.009 54.3857 17.4061 54.3857 18.0018L54.4433 28.7354H54.1977Z" fill="#5962E2"/>
</g>
<g filter="url(#filter2_d_747_6455)">
<path d="M78.1441 28.7188H75.3311V16.3589C75.3311 14.3402 76.4249 13 78.7188 13C80.7698 13 81.6809 14.5963 82.5737 16.3589L86.6186 24.6461C86.7857 25.0101 87.0744 25.2914 87.5605 25.2914C88.1074 25.2914 88.2401 24.9439 88.2401 24.4144V13.2813H91.0394V25.6247C91.0394 27.6599 89.9153 29.0166 87.6517 29.0166C85.6008 29.0166 84.4744 27.528 83.5464 25.7797L79.7215 17.8602C79.524 17.3969 79.3718 17.102 78.9161 17.102C78.3236 17.102 78.1441 17.5458 78.1441 18.0918L78.2305 28.7354L78.1441 28.7188Z" fill="url(#paint2_linear_747_6455)"/>
<path d="M78.1441 28.7188H75.3311V16.3589C75.3311 14.3402 76.4249 13 78.7188 13C80.7698 13 81.6809 14.5963 82.5737 16.3589L86.6186 24.6461C86.7857 25.0101 87.0744 25.2914 87.5605 25.2914C88.1074 25.2914 88.2401 24.9439 88.2401 24.4144V13.2813H91.0394V25.6247C91.0394 27.6599 89.9153 29.0166 87.6517 29.0166C85.6008 29.0166 84.4744 27.528 83.5464 25.7797L79.7215 17.8602C79.524 17.3969 79.3718 17.102 78.9161 17.102C78.3236 17.102 78.1441 17.5458 78.1441 18.0918L78.2305 28.7354L78.1441 28.7188Z" fill="#5962E2"/>
</g>
<g filter="url(#filter3_d_747_6455)">
<path d="M18.0608 1H2V1.00494C2 5.41949 5.57511 8.99905 9.98721 8.99905H18.3522C21.2187 8.99905 23.5445 11.3237 23.5445 14.1942C23.5445 17.0623 21.2211 19.3894 18.3522 19.3894H6.59234V23.6187C6.59234 25.7012 8.27866 27.3885 10.36 27.3885H18.0608C25.3419 27.3885 31.2453 21.4818 31.2453 14.1967C31.2453 6.90665 25.3419 1 18.0608 1Z" fill="url(#paint3_linear_747_6455)"/>
<path d="M18.0608 1H2V1.00494C2 5.41949 5.57511 8.99905 9.98721 8.99905H18.3522C21.2187 8.99905 23.5445 11.3237 23.5445 14.1942C23.5445 17.0623 21.2211 19.3894 18.3522 19.3894H6.59234V23.6187C6.59234 25.7012 8.27866 27.3885 10.36 27.3885H18.0608C25.3419 27.3885 31.2453 21.4818 31.2453 14.1967C31.2453 6.90665 25.3419 1 18.0608 1Z" fill="#5962E2"/>
</g>
<g filter="url(#filter4_d_747_6455)">
<path d="M18.0608 1H2C2 5.41455 5.57511 8.99164 9.9872 8.99164H18.0584C18.1349 8.99164 18.2114 8.99658 18.288 8.99658H18.3497C18.3695 8.99658 18.3917 8.99905 18.4114 8.99905C24.1444 9.14974 28.9664 12.9615 30.6256 18.1863C31.0255 16.9265 31.2428 15.5826 31.2428 14.1893C31.2453 6.90665 25.3419 1 18.0608 1Z" fill="url(#paint4_linear_747_6455)"/>
<path d="M18.0608 1H2C2 5.41455 5.57511 8.99164 9.9872 8.99164H18.0584C18.1349 8.99164 18.2114 8.99658 18.288 8.99658H18.3497C18.3695 8.99658 18.3917 8.99905 18.4114 8.99905C24.1444 9.14974 28.9664 12.9615 30.6256 18.1863C31.0255 16.9265 31.2428 15.5826 31.2428 14.1893C31.2453 6.90665 25.3419 1 18.0608 1Z" fill="#5962E2"/>
</g>
<g filter="url(#filter5_d_747_6455)">
<path d="M23.5449 14.1919C23.5449 17.06 21.2216 19.3871 18.3526 19.3871H10.1358V19.3648C8.16059 19.2487 6.59277 17.6134 6.59277 15.6074V23.6163C6.59277 25.6989 8.2791 27.3861 10.3605 27.3861C17.6415 27.3861 23.5449 21.4795 23.5449 14.1944V14.1919Z" fill="url(#paint5_linear_747_6455)"/>
<path d="M23.5449 14.1919C23.5449 17.06 21.2216 19.3871 18.3526 19.3871H10.1358V19.3648C8.16059 19.2487 6.59277 17.6134 6.59277 15.6074V23.6163C6.59277 25.6989 8.2791 27.3861 10.3605 27.3861C17.6415 27.3861 23.5449 21.4795 23.5449 14.1944V14.1919Z" fill="#5962E2"/>
</g>
<g filter="url(#filter6_d_747_6455)">
<path d="M18.6338 14.1397L14.0133 11.329L14.0133 16.9504L18.6338 14.1397Z" fill="url(#paint6_linear_747_6455)"/>
<path d="M18.6338 14.1397L14.0133 11.329L14.0133 16.9504L18.6338 14.1397Z" fill="#5962E2"/>
</g>
<defs>
<filter id="filter0_d_747_6455" x="34.3691" y="13" width="15.0649" height="17.4707" filterUnits="userSpaceOnUse" color-interpolation-filters="sRGB">
<feFlood flood-opacity="0" result="BackgroundImageFix"/>
<feColorMatrix in="SourceAlpha" type="matrix" values="0 0 0 0 0 0 0 0 0 0 0 0 0 0 0 0 0 0 127 0" result="hardAlpha"/>
<feOffset dy="1"/>
<feGaussianBlur stdDeviation="0.5"/>
<feComposite in2="hardAlpha" operator="out"/>
<feColorMatrix type="matrix" values="0 0 0 0 0.871855 0 0 0 0 0.820833 0 0 0 0 1 0 0 0 1 0"/>
<feBlend mode="normal" in2="BackgroundImageFix" result="effect1_dropShadow_747_6455"/>
<feBlend mode="normal" in="SourceGraphic" in2="effect1_dropShadow_747_6455" result="shape"/>
</filter>
<filter id="filter1_d_747_6455" x="50.415" y="13" width="22.5698" height="18" filterUnits="userSpaceOnUse" color-interpolation-filters="sRGB">
<feFlood flood-opacity="0" result="BackgroundImageFix"/>
<feColorMatrix in="SourceAlpha" type="matrix" values="0 0 0 0 0 0 0 0 0 0 0 0 0 0 0 0 0 0 127 0" result="hardAlpha"/>
<feOffset dy="1"/>
<feGaussianBlur stdDeviation="0.5"/>
<feComposite in2="hardAlpha" operator="out"/>
<feColorMatrix type="matrix" values="0 0 0 0 0.871855 0 0 0 0 0.820833 0 0 0 0 1 0 0 0 1 0"/>
<feBlend mode="normal" in2="BackgroundImageFix" result="effect1_dropShadow_747_6455"/>
<feBlend mode="normal" in="SourceGraphic" in2="effect1_dropShadow_747_6455" result="shape"/>
</filter>
<filter id="filter2_d_747_6455" x="74.3311" y="13" width="17.7085" height="18.0166" filterUnits="userSpaceOnUse" color-interpolation-filters="sRGB">
<feFlood flood-opacity="0" result="BackgroundImageFix"/>
<feColorMatrix in="SourceAlpha" type="matrix" values="0 0 0 0 0 0 0 0 0 0 0 0 0 0 0 0 0 0 127 0" result="hardAlpha"/>
<feOffset dy="1"/>
<feGaussianBlur stdDeviation="0.5"/>
<feComposite in2="hardAlpha" operator="out"/>
<feColorMatrix type="matrix" values="0 0 0 0 0.871855 0 0 0 0 0.820833 0 0 0 0 1 0 0 0 1 0"/>
<feBlend mode="normal" in2="BackgroundImageFix" result="effect1_dropShadow_747_6455"/>
<feBlend mode="normal" in="SourceGraphic" in2="effect1_dropShadow_747_6455" result="shape"/>
</filter>
<filter id="filter3_d_747_6455" x="1" y="1" width="31.2451" height="28.3887" filterUnits="userSpaceOnUse" color-interpolation-filters="sRGB">
<feFlood flood-opacity="0" result="BackgroundImageFix"/>
<feColorMatrix in="SourceAlpha" type="matrix" values="0 0 0 0 0 0 0 0 0 0 0 0 0 0 0 0 0 0 127 0" result="hardAlpha"/>
<feOffset dy="1"/>
<feGaussianBlur stdDeviation="0.5"/>
<feComposite in2="hardAlpha" operator="out"/>
<feColorMatrix type="matrix" values="0 0 0 0 0.871855 0 0 0 0 0.820833 0 0 0 0 1 0 0 0 1 0"/>
<feBlend mode="normal" in2="BackgroundImageFix" result="effect1_dropShadow_747_6455"/>
<feBlend mode="normal" in="SourceGraphic" in2="effect1_dropShadow_747_6455" result="shape"/>
</filter>
<filter id="filter4_d_747_6455" x="0" y="0" width="33.2427" height="21.1865" filterUnits="userSpaceOnUse" color-interpolation-filters="sRGB">
<feFlood flood-opacity="0" result="BackgroundImageFix"/>
<feColorMatrix in="SourceAlpha" type="matrix" values="0 0 0 0 0 0 0 0 0 0 0 0 0 0 0 0 0 0 127 0" result="hardAlpha"/>
<feOffset dy="1"/>
<feGaussianBlur stdDeviation="1"/>
<feComposite in2="hardAlpha" operator="out"/>
<feColorMatrix type="matrix" values="0 0 0 0 1 0 0 0 0 1 0 0 0 0 1 0 0 0 1 0"/>
<feBlend mode="normal" in2="BackgroundImageFix" result="effect1_dropShadow_747_6455"/>
<feBlend mode="normal" in="SourceGraphic" in2="effect1_dropShadow_747_6455" result="shape"/>
</filter>
<filter id="filter5_d_747_6455" x="4.59277" y="13.1919" width="20.9521" height="17.1943" filterUnits="userSpaceOnUse" color-interpolation-filters="sRGB">
<feFlood flood-opacity="0" result="BackgroundImageFix"/>
<feColorMatrix in="SourceAlpha" type="matrix" values="0 0 0 0 0 0 0 0 0 0 0 0 0 0 0 0 0 0 127 0" result="hardAlpha"/>
<feOffset dy="1"/>
<feGaussianBlur stdDeviation="1"/>
<feComposite in2="hardAlpha" operator="out"/>
<feColorMatrix type="matrix" values="0 0 0 0 1 0 0 0 0 1 0 0 0 0 1 0 0 0 1 0"/>
<feBlend mode="normal" in2="BackgroundImageFix" result="effect1_dropShadow_747_6455"/>
<feBlend mode="normal" in="SourceGraphic" in2="effect1_dropShadow_747_6455" result="shape"/>
</filter>
<filter id="filter6_d_747_6455" x="13.0132" y="11.3291" width="6.62061" height="7.62109" filterUnits="userSpaceOnUse" color-interpolation-filters="sRGB">
<feFlood flood-opacity="0" result="BackgroundImageFix"/>
<feColorMatrix in="SourceAlpha" type="matrix" values="0 0 0 0 0 0 0 0 0 0 0 0 0 0 0 0 0 0 127 0" result="hardAlpha"/>
<feOffset dy="1"/>
<feGaussianBlur stdDeviation="0.5"/>
<feComposite in2="hardAlpha" operator="out"/>
<feColorMatrix type="matrix" values="0 0 0 0 0.266667 0 0 0 0 0.0980392 0 0 0 0 0.690196 0 0 0 1 0"/>
<feBlend mode="normal" in2="BackgroundImageFix" result="effect1_dropShadow_747_6455"/>
<feBlend mode="normal" in="SourceGraphic" in2="effect1_dropShadow_747_6455" result="shape"/>
</filter>
<linearGradient id="paint0_linear_747_6455" x1="24.3621" y1="8.4773" x2="40.6432" y2="4.88659" gradientUnits="userSpaceOnUse">
<stop stop-color="#BC3DF8"/>
<stop offset="1" stop-color="#6C27DC"/>
</linearGradient>
<linearGradient id="paint1_linear_747_6455" x1="34.0853" y1="8.32251" x2="58.2424" y2="0.212046" gradientUnits="userSpaceOnUse">
<stop stop-color="#BC3DF8"/>
<stop offset="1" stop-color="#6C27DC"/>
</linearGradient>
<linearGradient id="paint2_linear_747_6455" x1="62.097" y1="8.31768" x2="81.3606" y2="3.38375" gradientUnits="userSpaceOnUse">
<stop stop-color="#BC3DF8"/>
<stop offset="1" stop-color="#6C27DC"/>
</linearGradient>
<linearGradient id="paint3_linear_747_6455" x1="24.6497" y1="9.58914" x2="23.4451" y2="29.8429" gradientUnits="userSpaceOnUse">
<stop stop-color="#FF33DA"/>
<stop offset="0.406493" stop-color="#CD20E9"/>
<stop offset="1" stop-color="#511BB2"/>
</linearGradient>
<linearGradient id="paint4_linear_747_6455" x1="14.8288" y1="-1.35567" x2="33.2001" y2="6.45252" gradientUnits="userSpaceOnUse">
<stop stop-color="#FF00D0"/>
<stop offset="0.596538" stop-color="#9E00FF"/>
<stop offset="1" stop-color="#501BB1"/>
</linearGradient>
<linearGradient id="paint5_linear_747_6455" x1="8.37856" y1="21.875" x2="21.5239" y2="16.1951" gradientUnits="userSpaceOnUse">
<stop stop-color="#FF01D1"/>
<stop offset="0.486673" stop-color="#B701F4"/>
<stop offset="1" stop-color="#511BB2"/>
</linearGradient>
<linearGradient id="paint6_linear_747_6455" x1="19.6123" y1="13.2861" x2="11.4691" y2="10.54" gradientUnits="userSpaceOnUse">
<stop stop-color="#FE1786"/>
<stop offset="0.498952" stop-color="#AD00FF"/>
<stop offset="1" stop-color="#6A00BD"/>
</linearGradient>
</defs>
</svg>
