<svg width="92" height="31" viewBox="0 0 92 31" fill="none" xmlns="http://www.w3.org/2000/svg">
<g filter="url(#filter0_d_756_6660)">
<path d="M43.0776 11C46.3958 11 47.8049 13.1598 47.8049 15.6518C47.8049 17.579 46.9261 20.0316 44.6837 20.6962L48.1079 26.5337H45.2443L41.8806 20.9121H38.0473C37.8049 20.9121 37.6685 20.8838 37.6685 21.1497V26.5337H35.0928V20.3867C35.0928 18.6423 35.7897 17.9279 37.411 17.9279H43.1534C44.6079 17.9279 45.1988 17.1249 45.1988 16.0284C45.1988 14.9319 44.5624 14.4765 43.1534 14.4765H35.0776V11.0166H43.0625L43.0776 11Z" fill="url(#paint0_linear_756_6660)"/>
<path d="M43.0776 11C46.3958 11 47.8049 13.1598 47.8049 15.6518C47.8049 17.579 46.9261 20.0316 44.6837 20.6962L48.1079 26.5337H45.2443L41.8806 20.9121H38.0473C37.8049 20.9121 37.6685 20.8838 37.6685 21.1497V26.5337H35.0928V20.3867C35.0928 18.6423 35.7897 17.9279 37.411 17.9279H43.1534C44.6079 17.9279 45.1988 17.1249 45.1988 16.0284C45.1988 14.9319 44.5624 14.4765 43.1534 14.4765H35.0776V11.0166H43.0625L43.0776 11Z" fill="url(#paint1_linear_756_6660)"/>
</g>
<g filter="url(#filter1_d_756_6660)">
<path d="M53.8573 26.7995H51.082V14.4722C51.082 12.3955 52.2335 11 54.6123 11C56.7032 11 57.9002 12.0965 58.3244 14.0569L60.4002 22.7791C60.5365 23.3273 60.8396 23.6596 61.385 23.6596C61.9305 23.6596 62.2335 23.3439 62.3699 22.7791L64.4456 14.0569C64.8547 12.0965 65.9456 11 68.0668 11C70.4456 11 71.5971 12.3955 71.5971 14.4722V26.7995H68.707V16.0222C68.707 15.4241 68.5122 15.0253 67.8455 15.0253C67.2395 15.0253 67.0971 15.341 66.9759 15.856L64.8547 23.942C64.4002 25.9855 63.4002 27.0653 61.3699 27.0653C59.3396 27.0653 58.2487 25.9356 57.8093 23.942L55.7184 15.856C55.6123 15.3576 55.4822 15.0253 54.8913 15.0253C54.2095 15.0253 54.0447 15.4241 54.0447 16.0222L54.1022 26.7995H53.8573Z" fill="url(#paint2_linear_756_6660)"/>
<path d="M53.8573 26.7995H51.082V14.4722C51.082 12.3955 52.2335 11 54.6123 11C56.7032 11 57.9002 12.0965 58.3244 14.0569L60.4002 22.7791C60.5365 23.3273 60.8396 23.6596 61.385 23.6596C61.9305 23.6596 62.2335 23.3439 62.3699 22.7791L64.4456 14.0569C64.8547 12.0965 65.9456 11 68.0668 11C70.4456 11 71.5971 12.3955 71.5971 14.4722V26.7995H68.707V16.0222C68.707 15.4241 68.5122 15.0253 67.8455 15.0253C67.2395 15.0253 67.0971 15.341 66.9759 15.856L64.8547 23.942C64.4002 25.9855 63.4002 27.0653 61.3699 27.0653C59.3396 27.0653 58.2487 25.9356 57.8093 23.942L55.7184 15.856C55.6123 15.3576 55.4822 15.0253 54.8913 15.0253C54.2095 15.0253 54.0447 15.4241 54.0447 16.0222L54.1022 26.7995H53.8573Z" fill="url(#paint3_linear_756_6660)"/>
</g>
<g filter="url(#filter2_d_756_6660)">
<path d="M77.7382 26.7829H74.9326V14.3726C74.9326 12.3457 76.0235 11 78.3114 11C80.3568 11 81.2655 12.6028 82.1559 14.3726L86.1902 22.6936C86.3568 23.0591 86.6447 23.3415 87.1295 23.3415C87.675 23.3415 87.8073 22.9926 87.8073 22.461V11.2824H90.5992V23.6762C90.5992 25.7196 89.478 27.082 87.2205 27.082C85.175 27.082 84.0517 25.5873 83.1261 23.8319L79.3114 15.88C79.1144 15.4148 78.9626 15.1188 78.5081 15.1188C77.9172 15.1188 77.7382 15.5644 77.7382 16.1126L77.8243 26.7995L77.7382 26.7829Z" fill="url(#paint4_linear_756_6660)"/>
<path d="M77.7382 26.7829H74.9326V14.3726C74.9326 12.3457 76.0235 11 78.3114 11C80.3568 11 81.2655 12.6028 82.1559 14.3726L86.1902 22.6936C86.3568 23.0591 86.6447 23.3415 87.1295 23.3415C87.675 23.3415 87.8073 22.9926 87.8073 22.461V11.2824H90.5992V23.6762C90.5992 25.7196 89.478 27.082 87.2205 27.082C85.175 27.082 84.0517 25.5873 83.1261 23.8319L79.3114 15.88C79.1144 15.4148 78.9626 15.1188 78.5081 15.1188C77.9172 15.1188 77.7382 15.5644 77.7382 16.1126L77.8243 26.7995L77.7382 26.7829Z" fill="url(#paint5_linear_756_6660)"/>
</g>
<g filter="url(#filter3_d_756_6660)">
<path d="M18.0608 1H2V1.00494C2 5.41949 5.57511 8.99905 9.98721 8.99905H18.3522C21.2187 8.99905 23.5445 11.3237 23.5445 14.1942C23.5445 17.0623 21.2211 19.3894 18.3522 19.3894H6.59234V23.6187C6.59234 25.7012 8.27866 27.3885 10.36 27.3885H18.0608C25.3419 27.3885 31.2453 21.4818 31.2453 14.1967C31.2453 6.90665 25.3419 1 18.0608 1Z" fill="url(#paint6_linear_756_6660)"/>
<path d="M18.0608 1H2V1.00494C2 5.41949 5.57511 8.99905 9.98721 8.99905H18.3522C21.2187 8.99905 23.5445 11.3237 23.5445 14.1942C23.5445 17.0623 21.2211 19.3894 18.3522 19.3894H6.59234V23.6187C6.59234 25.7012 8.27866 27.3885 10.36 27.3885H18.0608C25.3419 27.3885 31.2453 21.4818 31.2453 14.1967C31.2453 6.90665 25.3419 1 18.0608 1Z" fill="url(#paint7_linear_756_6660)"/>
</g>
<g filter="url(#filter4_d_756_6660)">
<path d="M18.0608 1H2C2 5.41455 5.57511 8.99164 9.9872 8.99164H18.0584C18.1349 8.99164 18.2114 8.99658 18.288 8.99658H18.3497C18.3694 8.99658 18.3917 8.99905 18.4114 8.99905C24.1444 9.14974 28.9664 12.9615 30.6255 18.1863C31.0255 16.9265 31.2428 15.5826 31.2428 14.1893C31.2453 6.90665 25.3419 1 18.0608 1Z" fill="url(#paint8_linear_756_6660)"/>
</g>
<g filter="url(#filter5_d_756_6660)">
<path d="M23.5449 14.1919C23.5449 17.06 21.2216 19.3871 18.3526 19.3871H10.1358V19.3648C8.16059 19.2487 6.59277 17.6134 6.59277 15.6074V23.6163C6.59277 25.6989 8.2791 27.3861 10.3605 27.3861C17.6415 27.3861 23.5449 21.4795 23.5449 14.1944V14.1919Z" fill="url(#paint9_linear_756_6660)"/>
</g>
<g filter="url(#filter6_d_756_6660)">
<path d="M18.6338 14.1397L14.0133 11.329L14.0133 16.9504L18.6338 14.1397Z" fill="#FD1B88"/>
</g>
<defs>
<filter id="filter0_d_756_6660" x="34.0776" y="11" width="15.0303" height="17.5337" filterUnits="userSpaceOnUse" color-interpolation-filters="sRGB">
<feFlood flood-opacity="0" result="BackgroundImageFix"/>
<feColorMatrix in="SourceAlpha" type="matrix" values="0 0 0 0 0 0 0 0 0 0 0 0 0 0 0 0 0 0 127 0" result="hardAlpha"/>
<feOffset dy="1"/>
<feGaussianBlur stdDeviation="0.5"/>
<feComposite in2="hardAlpha" operator="out"/>
<feColorMatrix type="matrix" values="0 0 0 0 0.871855 0 0 0 0 0.820833 0 0 0 0 1 0 0 0 1 0"/>
<feBlend mode="normal" in2="BackgroundImageFix" result="effect1_dropShadow_756_6660"/>
<feBlend mode="normal" in="SourceGraphic" in2="effect1_dropShadow_756_6660" result="shape"/>
</filter>
<filter id="filter1_d_756_6660" x="50.082" y="11" width="22.5151" height="18.0654" filterUnits="userSpaceOnUse" color-interpolation-filters="sRGB">
<feFlood flood-opacity="0" result="BackgroundImageFix"/>
<feColorMatrix in="SourceAlpha" type="matrix" values="0 0 0 0 0 0 0 0 0 0 0 0 0 0 0 0 0 0 127 0" result="hardAlpha"/>
<feOffset dy="1"/>
<feGaussianBlur stdDeviation="0.5"/>
<feComposite in2="hardAlpha" operator="out"/>
<feColorMatrix type="matrix" values="0 0 0 0 0.871855 0 0 0 0 0.820833 0 0 0 0 1 0 0 0 1 0"/>
<feBlend mode="normal" in2="BackgroundImageFix" result="effect1_dropShadow_756_6660"/>
<feBlend mode="normal" in="SourceGraphic" in2="effect1_dropShadow_756_6660" result="shape"/>
</filter>
<filter id="filter2_d_756_6660" x="73.9326" y="11" width="17.6665" height="18.082" filterUnits="userSpaceOnUse" color-interpolation-filters="sRGB">
<feFlood flood-opacity="0" result="BackgroundImageFix"/>
<feColorMatrix in="SourceAlpha" type="matrix" values="0 0 0 0 0 0 0 0 0 0 0 0 0 0 0 0 0 0 127 0" result="hardAlpha"/>
<feOffset dy="1"/>
<feGaussianBlur stdDeviation="0.5"/>
<feComposite in2="hardAlpha" operator="out"/>
<feColorMatrix type="matrix" values="0 0 0 0 0.871855 0 0 0 0 0.820833 0 0 0 0 1 0 0 0 1 0"/>
<feBlend mode="normal" in2="BackgroundImageFix" result="effect1_dropShadow_756_6660"/>
<feBlend mode="normal" in="SourceGraphic" in2="effect1_dropShadow_756_6660" result="shape"/>
</filter>
<filter id="filter3_d_756_6660" x="1" y="1" width="31.2451" height="28.3887" filterUnits="userSpaceOnUse" color-interpolation-filters="sRGB">
<feFlood flood-opacity="0" result="BackgroundImageFix"/>
<feColorMatrix in="SourceAlpha" type="matrix" values="0 0 0 0 0 0 0 0 0 0 0 0 0 0 0 0 0 0 127 0" result="hardAlpha"/>
<feOffset dy="1"/>
<feGaussianBlur stdDeviation="0.5"/>
<feComposite in2="hardAlpha" operator="out"/>
<feColorMatrix type="matrix" values="0 0 0 0 0.871855 0 0 0 0 0.820833 0 0 0 0 1 0 0 0 1 0"/>
<feBlend mode="normal" in2="BackgroundImageFix" result="effect1_dropShadow_756_6660"/>
<feBlend mode="normal" in="SourceGraphic" in2="effect1_dropShadow_756_6660" result="shape"/>
</filter>
<filter id="filter4_d_756_6660" x="0" y="0" width="33.2427" height="21.1865" filterUnits="userSpaceOnUse" color-interpolation-filters="sRGB">
<feFlood flood-opacity="0" result="BackgroundImageFix"/>
<feColorMatrix in="SourceAlpha" type="matrix" values="0 0 0 0 0 0 0 0 0 0 0 0 0 0 0 0 0 0 127 0" result="hardAlpha"/>
<feOffset dy="1"/>
<feGaussianBlur stdDeviation="1"/>
<feComposite in2="hardAlpha" operator="out"/>
<feColorMatrix type="matrix" values="0 0 0 0 1 0 0 0 0 1 0 0 0 0 1 0 0 0 1 0"/>
<feBlend mode="normal" in2="BackgroundImageFix" result="effect1_dropShadow_756_6660"/>
<feBlend mode="normal" in="SourceGraphic" in2="effect1_dropShadow_756_6660" result="shape"/>
</filter>
<filter id="filter5_d_756_6660" x="4.59277" y="13.1919" width="20.9521" height="17.1943" filterUnits="userSpaceOnUse" color-interpolation-filters="sRGB">
<feFlood flood-opacity="0" result="BackgroundImageFix"/>
<feColorMatrix in="SourceAlpha" type="matrix" values="0 0 0 0 0 0 0 0 0 0 0 0 0 0 0 0 0 0 127 0" result="hardAlpha"/>
<feOffset dy="1"/>
<feGaussianBlur stdDeviation="1"/>
<feComposite in2="hardAlpha" operator="out"/>
<feColorMatrix type="matrix" values="0 0 0 0 1 0 0 0 0 1 0 0 0 0 1 0 0 0 1 0"/>
<feBlend mode="normal" in2="BackgroundImageFix" result="effect1_dropShadow_756_6660"/>
<feBlend mode="normal" in="SourceGraphic" in2="effect1_dropShadow_756_6660" result="shape"/>
</filter>
<filter id="filter6_d_756_6660" x="13.0132" y="11.3291" width="6.62061" height="7.62109" filterUnits="userSpaceOnUse" color-interpolation-filters="sRGB">
<feFlood flood-opacity="0" result="BackgroundImageFix"/>
<feColorMatrix in="SourceAlpha" type="matrix" values="0 0 0 0 0 0 0 0 0 0 0 0 0 0 0 0 0 0 127 0" result="hardAlpha"/>
<feOffset dy="1"/>
<feGaussianBlur stdDeviation="0.5"/>
<feComposite in2="hardAlpha" operator="out"/>
<feColorMatrix type="matrix" values="0 0 0 0 0.266667 0 0 0 0 0.0980392 0 0 0 0 0.690196 0 0 0 1 0"/>
<feBlend mode="normal" in2="BackgroundImageFix" result="effect1_dropShadow_756_6660"/>
<feBlend mode="normal" in="SourceGraphic" in2="effect1_dropShadow_756_6660" result="shape"/>
</filter>
<linearGradient id="paint0_linear_756_6660" x1="24.0998" y1="6.45886" x2="40.3477" y2="2.89953" gradientUnits="userSpaceOnUse">
<stop stop-color="#BC3DF8"/>
<stop offset="1" stop-color="#6C27DC"/>
</linearGradient>
<linearGradient id="paint1_linear_756_6660" x1="41.5928" y1="11" x2="41.5928" y2="26.5337" gradientUnits="userSpaceOnUse">
<stop stop-color="#5327D2"/>
<stop offset="1" stop-color="#5327D2" stop-opacity="0"/>
</linearGradient>
<linearGradient id="paint2_linear_756_6660" x1="33.7984" y1="6.30344" x2="57.9239" y2="-1.74207" gradientUnits="userSpaceOnUse">
<stop stop-color="#BC3DF8"/>
<stop offset="1" stop-color="#6C27DC"/>
</linearGradient>
<linearGradient id="paint3_linear_756_6660" x1="61.3396" y1="11" x2="61.3396" y2="27.0653" gradientUnits="userSpaceOnUse">
<stop stop-color="#5327D2"/>
<stop offset="1" stop-color="#5327D2" stop-opacity="0"/>
</linearGradient>
<linearGradient id="paint4_linear_756_6660" x1="61.7337" y1="6.29858" x2="80.962" y2="1.40678" gradientUnits="userSpaceOnUse">
<stop stop-color="#BC3DF8"/>
<stop offset="1" stop-color="#6C27DC"/>
</linearGradient>
<linearGradient id="paint5_linear_756_6660" x1="82.7659" y1="11" x2="82.7659" y2="27.082" gradientUnits="userSpaceOnUse">
<stop stop-color="#5327D2"/>
<stop offset="1" stop-color="#5327D2" stop-opacity="0"/>
</linearGradient>
<linearGradient id="paint6_linear_756_6660" x1="24.6497" y1="9.58914" x2="23.4451" y2="29.8429" gradientUnits="userSpaceOnUse">
<stop stop-color="#FF33DA"/>
<stop offset="0.406493" stop-color="#CD20E9"/>
<stop offset="1" stop-color="#511BB2"/>
</linearGradient>
<linearGradient id="paint7_linear_756_6660" x1="24.5" y1="12.5" x2="23.5" y2="23.5" gradientUnits="userSpaceOnUse">
<stop stop-color="#C111AD"/>
<stop offset="1" stop-color="#FD1B88"/>
</linearGradient>
<linearGradient id="paint8_linear_756_6660" x1="-9.90045" y1="17.5459" x2="25.3082" y2="4.44561" gradientUnits="userSpaceOnUse">
<stop stop-color="#2D34DD"/>
<stop offset="1" stop-color="#9500FF"/>
</linearGradient>
<linearGradient id="paint9_linear_756_6660" x1="-0.30595" y1="26.8945" x2="21.2303" y2="20.8438" gradientUnits="userSpaceOnUse">
<stop stop-color="#2D34DD"/>
<stop offset="1" stop-color="#9500FF"/>
</linearGradient>
</defs>
</svg>
