<svg width="25" height="23" viewBox="0 0 25 23" fill="none" xmlns="http://www.w3.org/2000/svg">
<path d="M16.155 7.25984C16.155 5.08919 15.3069 1.64664 12.3683 1.90212C12.2269 1.91442 12.0837 1.92671 11.9417 1.92671H4.34184C4.2174 1.92671 4.09468 1.93362 3.97307 1.95999C3.25308 2.11612 0.660554 2.92116 1.04401 6.37133L1.04401 15.8198C1.04401 16.0387 1.01284 16.2559 1.00265 16.4746C0.934897 17.9286 2.16442 20.5936 5.04389 20.5936H12.7468C12.9444 20.5936 13.144 20.6215 13.3382 20.5852C14.2721 20.4107 16.155 19.0182 16.155 17.038V16.1491" stroke="#595959" stroke-width="2"/>
<mask id="mask0_56_1845" style="mask-type:alpha" maskUnits="userSpaceOnUse" x="3" y="2" width="23" height="20">
<path d="M23.791 13C24.3433 13 24.791 12.5523 24.791 12C24.791 11.4477 24.3433 11 23.791 11V13ZM13.666 11C13.1137 11 12.666 11.4477 12.666 12C12.666 12.5523 13.1137 13 13.666 13V11ZM22.2481 7.91789C21.8576 7.52737 21.2244 7.52737 20.8339 7.91789C20.4434 8.30842 20.4434 8.94158 20.8339 9.33211L22.2481 7.91789ZM23.6432 10.7272L22.9361 11.4343L23.6432 10.7272ZM23.6432 13.2728L24.3503 13.9799L24.3503 13.9799L23.6432 13.2728ZM20.8339 14.6679C20.4434 15.0584 20.4434 15.6916 20.8339 16.0821C21.2244 16.4726 21.8576 16.4726 22.2481 16.0821L20.8339 14.6679ZM24.395 11.6524L23.4439 11.9614L24.395 11.6524ZM24.395 12.3476L23.4439 12.0386L24.395 12.3476ZM7.30205 5.63604L8.00916 6.34315L7.30205 5.63604ZM7.30206 18.364L6.59495 19.0711L7.30206 18.364ZM17.6656 5.06896C18.1437 5.34534 18.7554 5.18176 19.0318 4.7036C19.3081 4.22544 19.1446 3.61377 18.6664 3.3374L17.6656 5.06896ZM18.6664 20.6626C19.1446 20.3862 19.3081 19.7746 19.0318 19.2964C18.7554 18.8182 18.1437 18.6547 17.6656 18.931L18.6664 20.6626ZM23.791 11H13.666V13H23.791V11ZM20.8339 9.33211L22.9361 11.4343L24.3503 10.0201L22.2481 7.91789L20.8339 9.33211ZM22.9361 12.5657L20.8339 14.6679L22.2481 16.0821L24.3503 13.9799L22.9361 12.5657ZM22.9361 11.4343C23.1705 11.6687 23.3033 11.8026 23.3925 11.9077C23.4742 12.0039 23.4592 12.0085 23.4439 11.9614L25.346 11.3433C25.2472 11.0393 25.0792 10.8041 24.9172 10.6133C24.7628 10.4315 24.5614 10.2312 24.3503 10.0201L22.9361 11.4343ZM24.3503 13.9799C24.5614 13.7688 24.7628 13.5685 24.9172 13.3867C25.0792 13.1959 25.2472 12.9606 25.346 12.6567L23.4439 12.0386C23.4592 11.9915 23.4742 11.9961 23.3925 12.0923C23.3033 12.1974 23.1705 12.3313 22.9361 12.5657L24.3503 13.9799ZM23.4439 11.9614C23.4521 11.9865 23.4521 12.0135 23.4439 12.0386L25.346 12.6567C25.4847 12.2299 25.4847 11.7701 25.346 11.3433L23.4439 11.9614ZM6.59495 4.92893C2.6897 8.83418 2.68971 15.1658 6.59495 19.0711L8.00916 17.6569C4.88497 14.5327 4.88497 9.46734 8.00916 6.34315L6.59495 4.92893ZM18.6664 3.3374C14.8424 1.12714 9.86775 1.65613 6.59495 4.92893L8.00916 6.34315C10.6256 3.72669 14.6058 3.30044 17.6656 5.06896L18.6664 3.3374ZM6.59495 19.0711C9.86775 22.3439 14.8424 22.8729 18.6664 20.6626L17.6656 18.931C14.6058 20.6996 10.6256 20.2733 8.00916 17.6569L6.59495 19.0711Z" fill="#595959"/>
</mask>
<g mask="url(#mask0_56_1845)">
<rect x="11.666" y="8" width="16" height="11" fill="#595959"/>
</g>
</svg>
