<svg width="27" height="25" viewBox="0 0 27 25" fill="none" xmlns="http://www.w3.org/2000/svg">
<path d="M19.0494 8.04257C19.0494 5.59413 18.0903 1.70723 14.7631 2.0175C14.6217 2.03068 14.4781 2.04279 14.3361 2.04279H5.73621C5.61177 2.04279 5.48833 2.0499 5.36656 2.07556C4.58877 2.23943 1.61415 3.12576 2.04952 7.04299L2.04952 17.7137C2.04952 17.9326 2.0188 18.1501 2.00519 18.3685C1.90384 19.9947 3.28298 23.043 6.54937 23.043H15.2523C15.4499 23.043 15.6494 23.0712 15.8445 23.0399C16.8818 22.8734 19.0494 21.2964 19.0494 19.043V18.043" stroke="#999999" stroke-width="3"/>
<mask id="mask0_56_1845" style="mask-type:alpha" maskUnits="userSpaceOnUse" x="4" y="3" width="22" height="20">
<path d="M24.125 14C24.6773 14 25.125 13.5523 25.125 13C25.125 12.4477 24.6773 12 24.125 12V14ZM14 12C13.4477 12 13 12.4477 13 13C13 13.5523 13.4477 14 14 14V12ZM22.5821 8.91789C22.1916 8.52737 21.5584 8.52737 21.1679 8.91789C20.7774 9.30842 20.7774 9.94158 21.1679 10.3321L22.5821 8.91789ZM23.9772 11.7272L23.2701 12.4343L23.2701 12.4343L23.9772 11.7272ZM23.9772 14.2728L24.6843 14.9799L24.6843 14.9799L23.9772 14.2728ZM21.1679 15.6679C20.7774 16.0584 20.7774 16.6916 21.1679 17.0821C21.5584 17.4726 22.1916 17.4726 22.5821 17.0821L21.1679 15.6679ZM24.7289 12.6524L23.7779 12.9614L23.7779 12.9614L24.7289 12.6524ZM24.7289 13.3476L23.7779 13.0386L23.7779 13.0386L24.7289 13.3476ZM7.63604 6.63604L8.34315 7.34315L7.63604 6.63604ZM7.63604 19.364L6.92893 20.0711L7.63604 19.364ZM17.9996 6.06896C18.4777 6.34534 19.0894 6.18176 19.3658 5.7036C19.6421 5.22544 19.4786 4.61377 19.0004 4.3374L17.9996 6.06896ZM19.0004 21.6626C19.4786 21.3862 19.6421 20.7746 19.3658 20.2964C19.0894 19.8182 18.4777 19.6547 17.9996 19.931L19.0004 21.6626ZM24.125 12H14V14H24.125V12ZM21.1679 10.3321L23.2701 12.4343L24.6843 11.0201L22.5821 8.91789L21.1679 10.3321ZM23.2701 13.5657L21.1679 15.6679L22.5821 17.0821L24.6843 14.9799L23.2701 13.5657ZM23.2701 12.4343C23.5045 12.6687 23.6373 12.8026 23.7265 12.9077C23.8082 13.0039 23.7932 13.0085 23.7779 12.9614L25.68 12.3433C25.5812 12.0393 25.4132 11.8041 25.2512 11.6133C25.0968 11.4315 24.8954 11.2312 24.6843 11.0201L23.2701 12.4343ZM24.6843 14.9799C24.8954 14.7688 25.0968 14.5685 25.2512 14.3867C25.4132 14.1959 25.5812 13.9606 25.68 13.6567L23.7779 13.0386C23.7932 12.9915 23.8082 12.9961 23.7265 13.0923C23.6373 13.1974 23.5045 13.3313 23.2701 13.5657L24.6843 14.9799ZM23.7779 12.9614C23.7861 12.9865 23.7861 13.0135 23.7779 13.0386L25.68 13.6567C25.8187 13.2299 25.8187 12.7701 25.68 12.3433L23.7779 12.9614ZM6.92893 5.92893C3.02369 9.83418 3.02369 16.1658 6.92893 20.0711L8.34315 18.6569C5.21895 15.5327 5.21895 10.4673 8.34315 7.34315L6.92893 5.92893ZM19.0004 4.3374C15.1764 2.12714 10.2017 2.65613 6.92893 5.92893L8.34315 7.34315C10.9596 4.72669 14.9398 4.30044 17.9996 6.06896L19.0004 4.3374ZM6.92893 20.0711C10.2017 23.3439 15.1764 23.8729 19.0004 21.6626L17.9996 19.931C14.9398 21.6996 10.9596 21.2733 8.34315 18.6569L6.92893 20.0711Z" fill="#999999"/>
</mask>
<g mask="url(#mask0_56_1845)">
<rect x="11" y="8" width="16" height="11" fill="#999999"/>
</g>
</svg>
