<svg width="34" height="31" viewBox="0 0 34 31" fill="none" xmlns="http://www.w3.org/2000/svg">
<g filter="url(#filter0_d_782_2372)">
<path d="M18.0608 1H2V1.00494C2 5.41949 5.57511 8.99905 9.98721 8.99905H18.3522C21.2187 8.99905 23.5445 11.3237 23.5445 14.1942C23.5445 17.0623 21.2211 19.3894 18.3522 19.3894H6.59234V23.6187C6.59234 25.7012 8.27866 27.3885 10.36 27.3885H18.0608C25.3419 27.3885 31.2453 21.4818 31.2453 14.1967C31.2453 6.90665 25.3419 1 18.0608 1Z" fill="url(#paint0_linear_782_2372)"/>
<path d="M18.0608 1H2V1.00494C2 5.41949 5.57511 8.99905 9.98721 8.99905H18.3522C21.2187 8.99905 23.5445 11.3237 23.5445 14.1942C23.5445 17.0623 21.2211 19.3894 18.3522 19.3894H6.59234V23.6187C6.59234 25.7012 8.27866 27.3885 10.36 27.3885H18.0608C25.3419 27.3885 31.2453 21.4818 31.2453 14.1967C31.2453 6.90665 25.3419 1 18.0608 1Z" fill="url(#paint1_linear_782_2372)"/>
</g>
<g filter="url(#filter1_d_782_2372)">
<path d="M18.0608 1H2C2 5.41455 5.57511 8.99164 9.9872 8.99164H18.0584C18.1349 8.99164 18.2114 8.99658 18.288 8.99658H18.3497C18.3694 8.99658 18.3917 8.99905 18.4114 8.99905C24.1444 9.14974 28.9664 12.9615 30.6255 18.1863C31.0255 16.9265 31.2428 15.5826 31.2428 14.1893C31.2453 6.90665 25.3419 1 18.0608 1Z" fill="url(#paint2_linear_782_2372)"/>
</g>
<g filter="url(#filter2_d_782_2372)">
<path d="M23.5449 14.1919C23.5449 17.06 21.2216 19.3871 18.3526 19.3871H10.1358V19.3648C8.16059 19.2487 6.59277 17.6134 6.59277 15.6074V23.6163C6.59277 25.6989 8.2791 27.3861 10.3605 27.3861C17.6415 27.3861 23.5449 21.4795 23.5449 14.1944V14.1919Z" fill="url(#paint3_linear_782_2372)"/>
</g>
<g filter="url(#filter3_d_782_2372)">
<path d="M18.6338 14.1397L14.0133 11.329L14.0133 16.9504L18.6338 14.1397Z" fill="#FD1B88"/>
</g>
<defs>
<filter id="filter0_d_782_2372" x="1" y="1" width="31.2451" height="28.3887" filterUnits="userSpaceOnUse" color-interpolation-filters="sRGB">
<feFlood flood-opacity="0" result="BackgroundImageFix"/>
<feColorMatrix in="SourceAlpha" type="matrix" values="0 0 0 0 0 0 0 0 0 0 0 0 0 0 0 0 0 0 127 0" result="hardAlpha"/>
<feOffset dy="1"/>
<feGaussianBlur stdDeviation="0.5"/>
<feComposite in2="hardAlpha" operator="out"/>
<feColorMatrix type="matrix" values="0 0 0 0 0.871855 0 0 0 0 0.820833 0 0 0 0 1 0 0 0 1 0"/>
<feBlend mode="normal" in2="BackgroundImageFix" result="effect1_dropShadow_782_2372"/>
<feBlend mode="normal" in="SourceGraphic" in2="effect1_dropShadow_782_2372" result="shape"/>
</filter>
<filter id="filter1_d_782_2372" x="0" y="0" width="33.2427" height="21.1865" filterUnits="userSpaceOnUse" color-interpolation-filters="sRGB">
<feFlood flood-opacity="0" result="BackgroundImageFix"/>
<feColorMatrix in="SourceAlpha" type="matrix" values="0 0 0 0 0 0 0 0 0 0 0 0 0 0 0 0 0 0 127 0" result="hardAlpha"/>
<feOffset dy="1"/>
<feGaussianBlur stdDeviation="1"/>
<feComposite in2="hardAlpha" operator="out"/>
<feColorMatrix type="matrix" values="0 0 0 0 1 0 0 0 0 1 0 0 0 0 1 0 0 0 1 0"/>
<feBlend mode="normal" in2="BackgroundImageFix" result="effect1_dropShadow_782_2372"/>
<feBlend mode="normal" in="SourceGraphic" in2="effect1_dropShadow_782_2372" result="shape"/>
</filter>
<filter id="filter2_d_782_2372" x="4.59277" y="13.1919" width="20.9521" height="17.1943" filterUnits="userSpaceOnUse" color-interpolation-filters="sRGB">
<feFlood flood-opacity="0" result="BackgroundImageFix"/>
<feColorMatrix in="SourceAlpha" type="matrix" values="0 0 0 0 0 0 0 0 0 0 0 0 0 0 0 0 0 0 127 0" result="hardAlpha"/>
<feOffset dy="1"/>
<feGaussianBlur stdDeviation="1"/>
<feComposite in2="hardAlpha" operator="out"/>
<feColorMatrix type="matrix" values="0 0 0 0 1 0 0 0 0 1 0 0 0 0 1 0 0 0 1 0"/>
<feBlend mode="normal" in2="BackgroundImageFix" result="effect1_dropShadow_782_2372"/>
<feBlend mode="normal" in="SourceGraphic" in2="effect1_dropShadow_782_2372" result="shape"/>
</filter>
<filter id="filter3_d_782_2372" x="13.0132" y="11.3291" width="6.62061" height="7.62109" filterUnits="userSpaceOnUse" color-interpolation-filters="sRGB">
<feFlood flood-opacity="0" result="BackgroundImageFix"/>
<feColorMatrix in="SourceAlpha" type="matrix" values="0 0 0 0 0 0 0 0 0 0 0 0 0 0 0 0 0 0 127 0" result="hardAlpha"/>
<feOffset dy="1"/>
<feGaussianBlur stdDeviation="0.5"/>
<feComposite in2="hardAlpha" operator="out"/>
<feColorMatrix type="matrix" values="0 0 0 0 0.266667 0 0 0 0 0.0980392 0 0 0 0 0.690196 0 0 0 1 0"/>
<feBlend mode="normal" in2="BackgroundImageFix" result="effect1_dropShadow_782_2372"/>
<feBlend mode="normal" in="SourceGraphic" in2="effect1_dropShadow_782_2372" result="shape"/>
</filter>
<linearGradient id="paint0_linear_782_2372" x1="24.6497" y1="9.58914" x2="23.4451" y2="29.8429" gradientUnits="userSpaceOnUse">
<stop stop-color="#FF33DA"/>
<stop offset="0.406493" stop-color="#CD20E9"/>
<stop offset="1" stop-color="#511BB2"/>
</linearGradient>
<linearGradient id="paint1_linear_782_2372" x1="24.5" y1="12.5" x2="23.5" y2="23.5" gradientUnits="userSpaceOnUse">
<stop stop-color="#C111AD"/>
<stop offset="1" stop-color="#FD1B88"/>
</linearGradient>
<linearGradient id="paint2_linear_782_2372" x1="-9.90045" y1="17.5459" x2="25.3082" y2="4.44561" gradientUnits="userSpaceOnUse">
<stop stop-color="#2D34DD"/>
<stop offset="1" stop-color="#9500FF"/>
</linearGradient>
<linearGradient id="paint3_linear_782_2372" x1="-0.30595" y1="26.8945" x2="21.2303" y2="20.8438" gradientUnits="userSpaceOnUse">
<stop stop-color="#2D34DD"/>
<stop offset="1" stop-color="#9500FF"/>
</linearGradient>
</defs>
</svg>
