<svg width="25" height="24" viewBox="0 0 25 24" fill="none" xmlns="http://www.w3.org/2000/svg">
<path d="M20.0894 3H5.08936C4.69153 3 4.31 3.15804 4.0287 3.43934C3.74739 3.72064 3.58936 4.10218 3.58936 4.5V19.5C3.58936 19.8978 3.74739 20.2794 4.0287 20.5607C4.31 20.842 4.69153 21 5.08936 21H20.0894C20.4872 21 20.8687 20.842 21.15 20.5607C21.4313 20.2794 21.5894 19.8978 21.5894 19.5V4.5C21.5894 4.10218 21.4313 3.72064 21.15 3.43934C20.8687 3.15804 20.4872 3 20.0894 3Z" stroke="#5861E2" stroke-width="2" stroke-linecap="round" stroke-linejoin="round"/>
<path d="M11.0894 15.5L13.5894 17.5L17.5894 12.5M7.58936 7.5H17.5894M7.58936 11.5H11.5894" stroke="#5861E2" stroke-width="2" stroke-linecap="round" stroke-linejoin="round"/>
</svg>
