<svg width="25" height="24" viewBox="0 0 25 24" fill="none" xmlns="http://www.w3.org/2000/svg">
<path d="M20.2085 3H5.2085C4.81067 3 4.42914 3.15804 4.14784 3.43934C3.86653 3.72064 3.7085 4.10218 3.7085 4.5V19.5C3.7085 19.8978 3.86653 20.2794 4.14784 20.5607C4.42914 20.842 4.81067 21 5.2085 21H20.2085C20.6063 21 20.9879 20.842 21.2692 20.5607C21.5505 20.2794 21.7085 19.8978 21.7085 19.5V4.5C21.7085 4.10218 21.5505 3.72064 21.2692 3.43934C20.9879 3.15804 20.6063 3 20.2085 3Z" stroke="#595959" stroke-width="2" stroke-linecap="round" stroke-linejoin="round"/>
<path d="M11.2085 15.5L13.7085 17.5L17.7085 12.5M7.7085 7.5H17.7085M7.7085 11.5H11.7085" stroke="#595959" stroke-width="2" stroke-linecap="round" stroke-linejoin="round"/>
</svg>
