<svg width="25" height="24" viewBox="0 0 25 24" fill="none" xmlns="http://www.w3.org/2000/svg">
<path d="M11.4085 13.15L9.2085 11H9.7085C9.99183 11 10.2295 10.904 10.4215 10.712C10.6128 10.5207 10.7085 10.2833 10.7085 10C10.7085 9.71667 10.6128 9.479 10.4215 9.287C10.2295 9.09567 9.99183 9 9.7085 9H6.7085C6.42516 9 6.1875 9.09567 5.9955 9.287C5.80416 9.479 5.7085 9.71667 5.7085 10V13C5.7085 13.2833 5.80416 13.5207 5.9955 13.712C6.1875 13.904 6.42516 14 6.7085 14C6.99183 14 7.2295 13.904 7.4215 13.712C7.61283 13.5207 7.7085 13.2833 7.7085 13V12.3L10.7085 15.3C10.7918 15.3833 10.8958 15.45 11.0205 15.5C11.1458 15.55 11.2752 15.575 11.4085 15.575C11.5418 15.575 11.6712 15.55 11.7965 15.5C11.9212 15.45 12.0252 15.375 12.1085 15.275L15.2335 12.125C15.4168 11.9417 15.5085 11.7167 15.5085 11.45C15.5085 11.1833 15.4085 10.95 15.2085 10.75C15.0252 10.5667 14.7918 10.475 14.5085 10.475C14.2252 10.475 13.9918 10.5667 13.8085 10.75L11.4085 13.15ZM4.7085 20C4.1585 20 3.68783 19.8043 3.2965 19.413C2.9045 19.021 2.7085 18.55 2.7085 18V6C2.7085 5.45 2.9045 4.97933 3.2965 4.588C3.68783 4.196 4.1585 4 4.7085 4H16.7085C17.2585 4 17.7295 4.196 18.1215 4.588C18.5128 4.97933 18.7085 5.45 18.7085 6V10.5L21.8585 7.35C22.0085 7.2 22.1878 7.16233 22.3965 7.237C22.6045 7.31233 22.7085 7.46667 22.7085 7.7V16.3C22.7085 16.5333 22.6045 16.6873 22.3965 16.762C22.1878 16.8373 22.0085 16.8 21.8585 16.65L18.7085 13.5V18C18.7085 18.55 18.5128 19.021 18.1215 19.413C17.7295 19.8043 17.2585 20 16.7085 20H4.7085ZM4.7085 18H16.7085V6H4.7085V18Z" fill="#595959"/>
</svg>
