<svg width="25" height="24" viewBox="0 0 25 24" fill="none" xmlns="http://www.w3.org/2000/svg">
<path d="M11.2895 13.15L9.08948 11H9.58948C9.87281 11 10.1105 10.904 10.3025 10.712C10.4938 10.5207 10.5895 10.2833 10.5895 10C10.5895 9.71667 10.4938 9.479 10.3025 9.287C10.1105 9.09567 9.87281 9 9.58948 9H6.58948C6.30614 9 6.06848 9.09567 5.87648 9.287C5.68514 9.479 5.58948 9.71667 5.58948 10V13C5.58948 13.2833 5.68514 13.5207 5.87648 13.712C6.06848 13.904 6.30614 14 6.58948 14C6.87281 14 7.11048 13.904 7.30248 13.712C7.49381 13.5207 7.58948 13.2833 7.58948 13V12.3L10.5895 15.3C10.6728 15.3833 10.7768 15.45 10.9015 15.5C11.0268 15.55 11.1561 15.575 11.2895 15.575C11.4228 15.575 11.5521 15.55 11.6775 15.5C11.8021 15.45 11.9061 15.375 11.9895 15.275L15.1145 12.125C15.2978 11.9417 15.3895 11.7167 15.3895 11.45C15.3895 11.1833 15.2895 10.95 15.0895 10.75C14.9061 10.5667 14.6728 10.475 14.3895 10.475C14.1061 10.475 13.8728 10.5667 13.6895 10.75L11.2895 13.15ZM4.58948 20C4.03948 20 3.56881 19.8043 3.17748 19.413C2.78548 19.021 2.58948 18.55 2.58948 18V6C2.58948 5.45 2.78548 4.97933 3.17748 4.588C3.56881 4.196 4.03948 4 4.58948 4H16.5895C17.1395 4 17.6105 4.196 18.0025 4.588C18.3938 4.97933 18.5895 5.45 18.5895 6V10.5L21.7395 7.35C21.8895 7.2 22.0688 7.16233 22.2775 7.237C22.4855 7.31233 22.5895 7.46667 22.5895 7.7V16.3C22.5895 16.5333 22.4855 16.6873 22.2775 16.762C22.0688 16.8373 21.8895 16.8 21.7395 16.65L18.5895 13.5V18C18.5895 18.55 18.3938 19.021 18.0025 19.413C17.6105 19.8043 17.1395 20 16.5895 20H4.58948ZM4.58948 18H16.5895V6H4.58948V18Z" fill="#5861E2"/>
</svg>
