<svg width="148" height="832" viewBox="0 0 148 832" fill="none" xmlns="http://www.w3.org/2000/svg">
<g clip-path="url(#clip0_759_6700)">
<rect width="148" height="832" fill="white"/>
<mask id="mask0_759_6700" style="mask-type:luminance" maskUnits="userSpaceOnUse" x="0" y="0" width="148" height="832">
<path d="M148 0H0V832H148V0Z" fill="white"/>
</mask>
<g mask="url(#mask0_759_6700)">
<g filter="url(#filter0_f_759_6700)">
<path d="M649.936 704.768C512.044 649.496 404.983 264.582 146.088 172.41C-154.335 152.575 249.859 1228.49 522.366 1383.91C933.736 1618.52 1725.57 1135.93 649.936 704.768Z" fill="url(#paint0_linear_759_6700)"/>
</g>
<g filter="url(#filter1_f_759_6700)">
<path d="M-30.9966 163.251C-35.7824 178.514 -79.1461 201.615 -86.7861 229.891C-85.5517 259.836 34.4249 185.031 49.2366 153.348C71.596 105.519 6.33473 44.1883 -30.9966 163.251Z" fill="url(#paint1_linear_759_6700)"/>
</g>
<g filter="url(#filter2_f_759_6700)">
<path d="M90.7737 164.692C90.7737 281.858 73.3785 388.671 -44.6235 388.671C-356.03 516.434 -319.331 359.936 -319.331 242.769C-304.376 184.408 -259.673 -93.9884 -141.671 -93.9884C-57.1457 -195.726 90.7737 47.5249 90.7737 164.692Z" fill="url(#paint2_linear_759_6700)"/>
</g>
<g filter="url(#filter3_d_759_6700)">
<path d="M148 0H0V832H148V0Z" fill="url(#paint3_linear_759_6700)"/>
</g>
</g>
</g>
<defs>
<filter id="filter0_f_759_6700" x="-230.181" y="-97.8608" width="1690.97" height="1813.23" filterUnits="userSpaceOnUse" color-interpolation-filters="sRGB">
<feFlood flood-opacity="0" result="BackgroundImageFix"/>
<feBlend mode="normal" in="SourceGraphic" in2="BackgroundImageFix" result="shape"/>
<feGaussianBlur stdDeviation="135" result="effect1_foregroundBlur_759_6700"/>
</filter>
<filter id="filter1_f_759_6700" x="-326.786" y="-145.692" width="620.579" height="622.518" filterUnits="userSpaceOnUse" color-interpolation-filters="sRGB">
<feFlood flood-opacity="0" result="BackgroundImageFix"/>
<feBlend mode="normal" in="SourceGraphic" in2="BackgroundImageFix" result="shape"/>
<feGaussianBlur stdDeviation="120" result="effect1_foregroundBlur_759_6700"/>
</filter>
<filter id="filter2_f_759_6700" x="-420.666" y="-218.289" width="611.439" height="754.667" filterUnits="userSpaceOnUse" color-interpolation-filters="sRGB">
<feFlood flood-opacity="0" result="BackgroundImageFix"/>
<feBlend mode="normal" in="SourceGraphic" in2="BackgroundImageFix" result="shape"/>
<feGaussianBlur stdDeviation="50" result="effect1_foregroundBlur_759_6700"/>
</filter>
<filter id="filter3_d_759_6700" x="-70" y="-60" width="288" height="972" filterUnits="userSpaceOnUse" color-interpolation-filters="sRGB">
<feFlood flood-opacity="0" result="BackgroundImageFix"/>
<feColorMatrix in="SourceAlpha" type="matrix" values="0 0 0 0 0 0 0 0 0 0 0 0 0 0 0 0 0 0 127 0" result="hardAlpha"/>
<feOffset dy="10"/>
<feGaussianBlur stdDeviation="35"/>
<feComposite in2="hardAlpha" operator="out"/>
<feColorMatrix type="matrix" values="0 0 0 0 0.345098 0 0 0 0 0.380392 0 0 0 0 0.886275 0 0 0 0.12 0"/>
<feBlend mode="normal" in2="BackgroundImageFix" result="effect1_dropShadow_759_6700"/>
<feBlend mode="normal" in="SourceGraphic" in2="effect1_dropShadow_759_6700" result="shape"/>
</filter>
<linearGradient id="paint0_linear_759_6700" x1="209.48" y1="519.745" x2="1036.44" y2="1047.73" gradientUnits="userSpaceOnUse">
<stop stop-color="#E1DCFF"/>
<stop offset="1" stop-color="#4434D9"/>
</linearGradient>
<linearGradient id="paint1_linear_759_6700" x1="-47.2653" y1="212.284" x2="7.4637" y2="115.942" gradientUnits="userSpaceOnUse">
<stop stop-color="#7C86E0"/>
<stop offset="1" stop-color="#B071CE"/>
</linearGradient>
<linearGradient id="paint2_linear_759_6700" x1="17.0688" y1="81.1349" x2="-116.493" y2="347.153" gradientUnits="userSpaceOnUse">
<stop stop-color="#D4D9F2"/>
<stop offset="0.9999" stop-color="#9F94D3"/>
<stop offset="1" stop-color="#A69EE2"/>
</linearGradient>
<linearGradient id="paint3_linear_759_6700" x1="73.5067" y1="2.87399e-07" x2="62.5611" y2="825.041" gradientUnits="userSpaceOnUse">
<stop stop-color="white"/>
<stop offset="0.84375" stop-color="#FDFDFD" stop-opacity="0"/>
</linearGradient>
<clipPath id="clip0_759_6700">
<rect width="148" height="832" fill="white"/>
</clipPath>
</defs>
</svg>
