<svg width="16" height="16" viewBox="0 0 16 16" fill="none" xmlns="http://www.w3.org/2000/svg">
<mask id="path-1-inside-1_634_4918" fill="white">
<path d="M16 14C16 15.1046 15.1046 16 14 16L2 16C0.895431 16 7.8281e-08 15.1046 1.74846e-07 14L1.22392e-06 2C1.32048e-06 0.895429 0.895432 -1.32048e-06 2 -1.22392e-06L14 -1.74846e-07C15.1046 -7.8281e-08 16 0.895431 16 2L16 14Z"/>
</mask>
<path d="M16 14C16 15.1046 15.1046 16 14 16L2 16C0.895431 16 7.8281e-08 15.1046 1.74846e-07 14L1.22392e-06 2C1.32048e-06 0.895429 0.895432 -1.32048e-06 2 -1.22392e-06L14 -1.74846e-07C15.1046 -7.8281e-08 16 0.895431 16 2L16 14Z" fill="white"/>
<path d="M17 14C17 15.6569 15.6569 17 14 17L3 17C1.34315 17 2.99988e-08 15.6569 1.74846e-07 14C1.26563e-07 14.5523 0.895431 15 2 15L14 15C14.5523 15 15 14.5523 15 14L17 14ZM1.22392e-06 2C1.36877e-06 0.343144 1.34315 -1 3 -1L14 -1C15.6569 -1 17 0.343146 17 2L15 2C15 1.44772 14.5523 1 14 1L2 0.999999C0.895432 0.999999 1.2722e-06 1.44771 1.22392e-06 2ZM14 -1C15.6569 -1 17 0.343146 17 2L17 14C17 15.6569 15.6569 17 14 17L14 15C14.5523 15 15 14.5523 15 14L15 2C15 1.44772 14.5523 1 14 1L14 -1ZM0 16L1.39876e-06 -1.39876e-06L0 16Z" fill="#294898" fill-opacity="0.17" mask="url(#path-1-inside-1_634_4918)"/>
<path d="M10.7399 8.54211L6.90571 11.39C6.51828 11.6777 6 11.3675 6 10.8479L6 5.15211C6 4.63249 6.51828 4.32226 6.90571 4.61003L10.7399 7.45791C11.0867 7.71553 11.0867 8.28449 10.7399 8.54211Z" fill="#999999"/>
</svg>
