<svg width="22" height="26" viewBox="0 0 22 26" fill="none" xmlns="http://www.w3.org/2000/svg">
<path d="M10.767 14.3333C13.596 14.3333 16.3091 15.4571 18.3095 17.4575C19.0348 18.1828 19.6449 19.0018 20.1279 19.886C21.54 22.471 19.0459 25 16.1004 25H5.43371C2.48819 25 -0.00591581 22.471 1.40619 19.886C1.88923 19.0018 2.49928 18.1828 3.22457 17.4575C5.22496 15.4571 7.93807 14.3333 10.767 14.3333ZM10.767 14.3333C14.4489 14.3333 17.4337 11.3486 17.4337 7.66667C17.4337 3.98477 14.4489 1 10.767 1C7.08514 1 4.10037 3.98477 4.10037 7.66667C4.10037 11.3486 7.08514 14.3333 10.767 14.3333Z" stroke="#595959" stroke-width="2"/>
</svg>
