<svg width="19" height="22" viewBox="0 0 19 22" fill="none" xmlns="http://www.w3.org/2000/svg">
<path d="M9.1392 12.1111C11.4967 12.1111 13.7576 13.0476 15.4246 14.7146C16.029 15.319 16.5374 16.0015 16.9399 16.7384C18.1167 18.8925 16.0382 21 13.5836 21H4.69476C2.24016 21 0.161737 18.8925 1.33849 16.7384C1.74102 16.0015 2.2494 15.319 2.85381 14.7146C4.5208 13.0476 6.78172 12.1111 9.1392 12.1111ZM9.1392 12.1111C12.2074 12.1111 14.6948 9.6238 14.6948 6.55556C14.6948 3.48731 12.2074 1 9.1392 1C6.07095 1 3.58364 3.48731 3.58364 6.55556C3.58364 9.6238 6.07095 12.1111 9.1392 12.1111Z" stroke="#999999" stroke-width="2"/>
</svg>
