<svg width="117" height="117" viewBox="0 0 117 117" fill="none" xmlns="http://www.w3.org/2000/svg">
<g clip-path="url(#clip0_432_5031)">
<path d="M59.9066 116.753C43.1457 116.538 29.8726 111.421 18.7139 101.002C7.58479 90.6109 1.26788 77.7515 0.173284 62.6327C-1.09241 45.1507 4.5858 29.9469 16.87 17.3872C27.4235 6.59689 40.3955 0.8104 55.4399 0.0786405C72.5 -0.751146 87.2529 4.99411 99.43 16.919C109.93 27.2014 115.637 39.9045 116.55 54.524C117.594 71.2304 112.343 85.8392 100.871 98.164C89.3796 110.509 75.0795 116.314 59.9066 116.753ZM111.265 52.895C110.171 41.1606 105.252 29.9638 96.0452 20.8218C86.0136 10.8603 73.7403 5.66613 59.6847 5.27048C44.89 4.85401 31.9405 10.0175 21.3112 20.2656C9.61951 31.5379 4.5404 45.681 5.31667 61.76C5.91294 74.1105 10.7706 84.8828 19.1392 94.013C28.6387 104.377 40.4444 110.319 54.4383 111.287C69.7597 112.347 83.3264 107.664 94.5868 97.098C106.991 85.4586 112.33 70.9648 111.265 52.895Z" fill="#8C41EC"/>
<path d="M61.8327 49.9835C61.8927 50.3886 62.0049 50.7937 62.0051 51.1989C62.0129 63.1099 62.0102 75.021 62.0071 86.932C62.0068 88.0734 62.0076 89.2152 61.9671 90.3553C61.9619 90.5015 61.7105 90.7607 61.5709 90.7623C59.3128 90.7881 57.0544 90.7805 54.7111 90.7805C54.7111 90.303 54.7112 89.925 54.7111 89.5471C54.7079 78.1059 54.711 66.6646 54.6941 55.2234C54.6919 53.7122 54.5772 52.2013 54.5394 50.6897C54.5322 50.4002 54.6416 50.1079 54.6972 49.8169C54.8132 49.7688 54.9291 49.7208 55.0451 49.6727C55.1989 49.6759 55.3528 49.679 55.5066 49.6821C55.6348 49.6904 55.763 49.6988 55.8911 49.7072C56.0334 49.7103 56.1757 49.7133 56.318 49.7161C56.3924 49.7291 56.4667 49.7424 56.5411 49.7558C56.6954 49.7578 56.8498 49.7598 57.0042 49.762C57.1805 49.7635 57.3567 49.7649 57.5329 49.7663C57.9104 49.7652 58.2879 49.764 58.6654 49.763C59.4485 49.7686 60.2315 49.774 61.0146 49.7795C61.2324 49.7909 61.4503 49.8023 61.6682 49.8138C61.723 49.8703 61.7779 49.9269 61.8327 49.9835Z" fill="#8C40EC"/>
<path d="M62.994 37.1375C63.2882 39.5449 61.5931 41.9092 58.3203 41.8637C55.4303 41.8235 53.7618 40.1154 53.6682 37.2262C53.5718 34.2522 55.7166 32.554 58.3256 32.5773C61.0496 32.6016 63.266 34.194 62.994 37.1375Z" fill="#9741EC"/>
</g>
<defs>
<clipPath id="clip0_432_5031">
<rect width="116.68" height="116.753" fill="white"/>
</clipPath>
</defs>
</svg>
